<?xml version="1.0" encoding="utf-8"?>
<!-- Generator: Adobe Illustrator 23.0.6, SVG Export Plug-In . SVG Version: 6.00 Build 0)  -->
<svg version="1.1" id="Layer_1" xmlns="http://www.w3.org/2000/svg" xmlns:xlink="http://www.w3.org/1999/xlink" x="0px" y="0px"
	 width="674px" height="403px" viewBox="0 0 674 403" style="enable-background:new 0 0 674 403;" xml:space="preserve">
<style type="text/css">
	.st0{fill:#0014FF;}
	.st1{fill:#FFFFFF;}
	.st2{fill:#980000;}
	.st3{fill:#FF9900;}
	.st4{fill:#FF00FF;}
	.st5{fill:#9900FF;}
	.st6{fill:#00FFFF;}
	.st7{fill:#FF0000;}
	.st8{fill:#737EFF;}
	.st9{fill:none;stroke:#A4ABFF;stroke-width:0.9209;stroke-miterlimit:10;}
	.st10{fill:none;stroke:#FFFFFF;stroke-miterlimit:10;}
</style>
<path class="st0" d="M0,0h674v403H0V0z"/>
<path class="st1" d="M337,79.8c74.5,0,135.6,59,138.3,133.5c2.6,74.5-54.1,137.7-128.5,143l-2.5-34.5c55.7-4,98.3-51.4,96.3-107.2
	c-2-55.8-47.8-100.1-103.7-100.1V79.8z"/>
<path d="M334.7,79.8c0.8,0,1.5,0,2.3,0v34.6c-0.6,0-1.2,0-1.7,0L334.7,79.8z"/>
<path class="st2" d="M333.9,79.8c0.3,0,0.5,0,0.8,0l0.6,34.6c-0.2,0-0.4,0-0.6,0L333.9,79.8z"/>
<path class="st3" d="M332.8,79.9c0.4,0,0.8,0,1.2,0l0.8,34.6c-0.3,0-0.6,0-0.9,0L332.8,79.9z"/>
<path class="st4" d="M312.8,81.9c6.6-1.2,13.3-1.9,19.9-2.1l1.1,34.6c-5,0.2-10,0.7-15,1.5L312.8,81.9z"/>
<path class="st5" d="M241.5,118c19.7-18.8,44.5-31.3,71.3-36.1l6,34.1c-20.1,3.6-38.7,13-53.5,27.1L241.5,118z"/>
<path class="st6" d="M226,135.6c4.7-6.3,9.9-12.2,15.6-17.6l23.9,25c-4.3,4.1-8.2,8.5-11.7,13.2L226,135.6z"/>
<path class="st7" d="M346.8,356.2c-54,3.8-105.2-24.1-131.2-71.5S193.7,179,226,135.6l27.8,20.6c-24.2,32.6-27.2,76.2-7.7,111.8
	c19.5,35.6,57.9,56.5,98.4,53.6L346.8,356.2z"/>
<path class="st1" d="M83.1,83.3V83c0-0.1,0-0.2,0.1-0.2c0,0,0.1-0.1,0.2-0.1c0.1,0,0.1,0,0.2,0.1c0,0,0.1,0.1,0.1,0.2v1.3
	c0,0.1,0,0.2-0.1,0.2c0,0-0.1,0.1-0.2,0.1c-0.1,0-0.1,0-0.2-0.1c0,0-0.1-0.1-0.1-0.2c0-0.3-0.2-0.6-0.5-0.8
	c-0.4-0.3-0.9-0.5-1.4-0.5c-0.3,0-0.7,0.1-1,0.2c-0.2,0.1-0.4,0.2-0.5,0.4c-0.2,0.3-0.4,0.6-0.6,0.9c-0.1,0.2-0.2,0.5-0.2,0.8v0.8
	c0,0.7,0.2,1.3,0.7,1.8c0.5,0.5,1.1,0.7,1.7,0.7c0.4,0,0.7-0.1,1-0.2c0.3-0.2,0.6-0.4,0.9-0.8c0.1-0.1,0.1-0.1,0.2-0.1
	c0.1,0,0.1,0,0.1,0.1c0,0,0.1,0.1,0.1,0.2c0,0.1-0.1,0.2-0.2,0.4c-0.3,0.3-0.6,0.6-1,0.7c-0.4,0.2-0.7,0.2-1.1,0.2
	c-0.3,0-0.7-0.1-1-0.2c-0.3-0.1-0.5-0.2-0.6-0.3c-0.2-0.1-0.4-0.4-0.6-0.7c-0.2-0.3-0.4-0.6-0.5-0.8s-0.1-0.5-0.1-0.9v-0.9
	c0-0.5,0.1-0.9,0.4-1.4c0.2-0.5,0.6-0.8,1-1.1c0.4-0.2,0.9-0.4,1.4-0.4C81.9,82.6,82.6,82.8,83.1,83.3z M86.1,82.2V85
	c0.3-0.3,0.6-0.5,0.8-0.6c0.3-0.1,0.6-0.2,0.9-0.2c0.4,0,0.7,0.1,0.9,0.2c0.2,0.1,0.5,0.3,0.6,0.6c0.2,0.2,0.3,0.5,0.3,0.8v2.8h0.5
	c0.1,0,0.2,0,0.2,0.1c0,0,0.1,0.1,0.1,0.2c0,0.1,0,0.1-0.1,0.2c0,0-0.1,0.1-0.2,0.1h-1.5c-0.1,0-0.2,0-0.2-0.1c0,0-0.1-0.1-0.1-0.2
	c0-0.1,0-0.1,0.1-0.2c0,0,0.1-0.1,0.2-0.1h0.5v-2.8c0-0.3-0.1-0.6-0.4-0.8c-0.2-0.2-0.6-0.3-1-0.3c-0.3,0-0.6,0.1-0.8,0.2
	c-0.2,0.1-0.5,0.4-0.8,0.8v2.9h0.5c0.1,0,0.2,0,0.2,0.1c0,0,0.1,0.1,0.1,0.2c0,0.1,0,0.1-0.1,0.2c0,0-0.1,0.1-0.2,0.1h-1.5
	c-0.1,0-0.2,0-0.2-0.1c0,0-0.1-0.1-0.1-0.2c0-0.1,0-0.1,0.1-0.2c0,0,0.1-0.1,0.2-0.1h0.5v-5.9H85c-0.1,0-0.2,0-0.2-0.1
	c0,0-0.1-0.1-0.1-0.2s0-0.1,0.1-0.2c0,0,0.1-0.1,0.2-0.1H86.1z M94.2,82v1.2h-0.7V82H94.2z M94.3,84.3v4.2H96c0.1,0,0.2,0,0.2,0.1
	c0,0,0.1,0.1,0.1,0.2c0,0.1,0,0.1-0.1,0.2c0,0-0.1,0.1-0.2,0.1h-4c-0.1,0-0.2,0-0.2-0.1c0,0-0.1-0.1-0.1-0.2c0-0.1,0-0.1,0.1-0.2
	c0,0,0.1-0.1,0.2-0.1h1.8v-3.8h-1.3c-0.1,0-0.2,0-0.2-0.1c0,0-0.1-0.1-0.1-0.2c0-0.1,0-0.1,0.1-0.2c0,0,0.1-0.1,0.2-0.1H94.3z
	 M99,84.3V85c0.3-0.3,0.6-0.5,0.8-0.7c0.3-0.1,0.5-0.2,0.9-0.2c0.3,0,0.7,0.1,0.9,0.2c0.2,0.1,0.4,0.3,0.5,0.5
	c0.2,0.2,0.2,0.5,0.2,0.8v2.8h0.4c0.1,0,0.2,0,0.2,0.1c0,0,0.1,0.1,0.1,0.2c0,0.1,0,0.1-0.1,0.2c0,0-0.1,0.1-0.2,0.1h-1.2
	c-0.1,0-0.2,0-0.2-0.1c0,0-0.1-0.1-0.1-0.2c0-0.1,0-0.1,0.1-0.2c0,0,0.1-0.1,0.2-0.1h0.4v-2.8c0-0.3-0.1-0.6-0.4-0.8
	c-0.2-0.2-0.5-0.3-0.9-0.3c-0.3,0-0.6,0.1-0.8,0.2c-0.2,0.1-0.5,0.4-0.9,0.9v2.8h0.5c0.1,0,0.2,0,0.2,0.1c0,0,0.1,0.1,0.1,0.2
	c0,0.1,0,0.1-0.1,0.2c0,0-0.1,0.1-0.2,0.1H98c-0.1,0-0.2,0-0.2-0.1c0,0-0.1-0.1-0.1-0.2c0-0.1,0-0.1,0.1-0.2c0,0,0.1-0.1,0.2-0.1
	h0.5v-3.8h-0.4c-0.1,0-0.2,0-0.2-0.1c0,0-0.1-0.1-0.1-0.2c0-0.1,0-0.1,0.1-0.2c0,0,0.1-0.1,0.2-0.1H99z M108.2,89v-0.6
	c-0.7,0.5-1.4,0.8-2.1,0.8c-0.5,0-1-0.1-1.3-0.4c-0.3-0.3-0.5-0.6-0.5-1c0-0.4,0.2-0.8,0.6-1.1c0.4-0.3,1-0.5,1.8-0.5
	c0.2,0,0.4,0,0.7,0c0.2,0,0.5,0.1,0.8,0.1v-0.7c0-0.2-0.1-0.5-0.3-0.6c-0.2-0.2-0.6-0.3-1-0.3c-0.4,0-0.8,0.1-1.5,0.3
	c-0.1,0-0.2,0.1-0.2,0.1c-0.1,0-0.1,0-0.2-0.1c0,0-0.1-0.1-0.1-0.2c0-0.1,0-0.1,0.1-0.1c0-0.1,0.2-0.1,0.6-0.2
	c0.6-0.2,1-0.2,1.3-0.2c0.6,0,1,0.1,1.3,0.4c0.3,0.3,0.5,0.6,0.5,0.9v3h0.6c0.1,0,0.2,0,0.2,0.1c0,0,0.1,0.1,0.1,0.2
	c0,0.1,0,0.1-0.1,0.2c0,0-0.1,0.1-0.2,0.1H108.2z M108.2,86.8c-0.2-0.1-0.4-0.1-0.7-0.1c-0.2,0-0.5,0-0.7,0c-0.7,0-1.2,0.1-1.5,0.4
	c-0.3,0.2-0.4,0.5-0.4,0.8c0,0.3,0.1,0.5,0.3,0.7c0.2,0.2,0.5,0.3,0.9,0.3c0.4,0,0.8-0.1,1.1-0.2c0.3-0.2,0.7-0.4,1-0.7V86.8z"/>
<path class="st8" d="M79.2,104.2h3.5V104c0-0.1,0-0.2,0.1-0.2c0,0,0.1-0.1,0.2-0.1c0.1,0,0.1,0,0.2,0.1c0,0,0.1,0.1,0.1,0.2v0.6
	h-4.4V104c0.9-0.8,1.8-1.7,2.7-2.5c0.4-0.4,0.7-0.7,0.8-0.9c0.2-0.2,0.3-0.4,0.3-0.5c0.1-0.1,0.1-0.3,0.1-0.4c0-0.4-0.2-0.7-0.5-1
	c-0.3-0.3-0.7-0.4-1.1-0.4c-0.4,0-0.7,0.1-1.1,0.3c-0.3,0.2-0.5,0.5-0.6,0.8c0,0.1-0.1,0.1-0.1,0.2c0,0-0.1,0-0.1,0
	c-0.1,0-0.1,0-0.2-0.1c0,0-0.1-0.1-0.1-0.1c0-0.2,0.1-0.4,0.3-0.7c0.2-0.3,0.5-0.5,0.8-0.7c0.3-0.2,0.7-0.3,1-0.3
	c0.6,0,1.1,0.2,1.5,0.6c0.4,0.4,0.6,0.8,0.6,1.3c0,0.2,0,0.4-0.1,0.6c-0.1,0.2-0.2,0.4-0.3,0.6c-0.2,0.2-0.5,0.5-0.9,0.9
	C80.7,102.8,79.9,103.6,79.2,104.2L79.2,104.2z M87.5,103.4h0.2c0.2,0,0.4,0.1,0.5,0.2c0.1,0.1,0.2,0.3,0.2,0.5
	c0,0.2-0.1,0.4-0.2,0.5c-0.1,0.1-0.3,0.2-0.5,0.2h-0.2c-0.2,0-0.4-0.1-0.5-0.2c-0.1-0.1-0.2-0.3-0.2-0.5c0-0.2,0.1-0.4,0.2-0.5
	C87.1,103.4,87.3,103.4,87.5,103.4z M95,101c0.4,0.2,0.7,0.4,0.9,0.8c0.2,0.3,0.3,0.7,0.3,1c0,0.5-0.2,1-0.7,1.4
	c-0.4,0.4-1,0.6-1.6,0.6c-0.4,0-0.8-0.1-1.2-0.2c-0.4-0.2-0.7-0.3-0.9-0.5c-0.1-0.1-0.1-0.1-0.1-0.2c0-0.1,0-0.1,0.1-0.1
	c0,0,0.1-0.1,0.2-0.1s0.1,0,0.2,0.1c0.6,0.4,1.1,0.6,1.8,0.6c0.5,0,1-0.2,1.3-0.5c0.4-0.3,0.5-0.7,0.5-1.1c0-0.3-0.1-0.5-0.3-0.8
	c-0.2-0.3-0.4-0.5-0.8-0.6c-0.3-0.2-0.7-0.2-1-0.2c-0.1,0-0.2,0-0.2-0.1c0,0-0.1-0.1-0.1-0.2c0-0.1,0-0.1,0.1-0.2
	c0,0,0.1-0.1,0.2-0.1l0.4,0c0.4,0,0.7-0.1,1-0.4c0.3-0.2,0.4-0.5,0.4-0.9c0-0.3-0.1-0.6-0.4-0.9c-0.3-0.3-0.6-0.4-1.1-0.4
	c-0.3,0-0.6,0.1-0.9,0.2c-0.3,0.1-0.5,0.3-0.6,0.4c-0.1,0.1-0.1,0.1-0.1,0.1c0,0-0.1,0-0.1,0c-0.1,0-0.1,0-0.2-0.1
	c0,0-0.1-0.1-0.1-0.1c0-0.1,0.2-0.3,0.5-0.5c0.4-0.3,0.9-0.5,1.5-0.5c0.6,0,1,0.2,1.4,0.5c0.4,0.3,0.6,0.8,0.6,1.2
	c0,0.3-0.1,0.6-0.3,0.9C95.6,100.6,95.3,100.8,95,101z M101.2,99.2c0,0.4-0.1,0.7-0.4,1c-0.3,0.3-0.6,0.4-1,0.4
	c-0.4,0-0.7-0.1-1-0.4c-0.3-0.3-0.4-0.6-0.4-1c0-0.4,0.1-0.7,0.4-1c0.3-0.3,0.6-0.4,1-0.4c0.4,0,0.7,0.1,1,0.4
	C101,98.5,101.2,98.8,101.2,99.2z M100.8,99.2c0-0.3-0.1-0.6-0.3-0.8c-0.2-0.2-0.5-0.3-0.7-0.3c-0.3,0-0.5,0.1-0.7,0.3
	c-0.2,0.2-0.3,0.5-0.3,0.8c0,0.3,0.1,0.6,0.3,0.8c0.2,0.2,0.5,0.3,0.7,0.3c0.3,0,0.5-0.1,0.7-0.3C100.7,99.7,100.8,99.5,100.8,99.2z
	 M102.6,100.8l-4.2,1.4c-0.1,0-0.1,0-0.1,0c0,0-0.1,0-0.1,0c0,0,0-0.1,0-0.1c0,0,0-0.1,0-0.1c0,0,0.1-0.1,0.1-0.1l4.2-1.4
	c0,0,0.1,0,0.1,0c0,0,0.1,0,0.1,0.1c0,0,0.1,0.1,0.1,0.1c0,0,0,0.1,0,0.1C102.7,100.7,102.7,100.7,102.6,100.8z M102.5,103.4
	c0,0.4-0.1,0.7-0.4,1c-0.3,0.3-0.6,0.4-1,0.4c-0.4,0-0.7-0.1-1-0.4c-0.3-0.3-0.4-0.6-0.4-1c0-0.4,0.1-0.7,0.4-1
	c0.3-0.3,0.6-0.4,1-0.4s0.7,0.1,1,0.4C102.4,102.7,102.5,103,102.5,103.4z M102.2,103.4c0-0.3-0.1-0.6-0.3-0.8
	c-0.2-0.2-0.5-0.3-0.7-0.3s-0.5,0.1-0.7,0.3c-0.2,0.2-0.3,0.5-0.3,0.8c0,0.3,0.1,0.6,0.3,0.8c0.2,0.2,0.5,0.3,0.7,0.3
	s0.5-0.1,0.7-0.3C102.1,104,102.2,103.7,102.2,103.4z"/>
<path class="st9" d="M77.8,94.1h115.3l130.4-6.7"/>
<path class="st8" d="M325.3,87.4c0-1-0.8-1.8-1.8-1.8s-1.8,0.8-1.8,1.8s0.8,1.8,1.8,1.8S325.3,88.4,325.3,87.4"/>
<path class="st1" d="M80,114.5v2.6h1.6c0.1,0,0.2,0,0.2,0.1c0,0,0.1,0.1,0.1,0.2c0,0.1,0,0.1-0.1,0.2c0,0-0.1,0.1-0.2,0.1H79
	c-0.1,0-0.2,0-0.2-0.1c0,0-0.1-0.1-0.1-0.2c0-0.1,0-0.1,0.1-0.2c0,0,0.1-0.1,0.2-0.1h0.6v-5.4H79c-0.1,0-0.2,0-0.2-0.1
	c0,0-0.1-0.1-0.1-0.2c0-0.1,0-0.1,0.1-0.2c0,0,0.1-0.1,0.2-0.1h5v1.6c0,0.1,0,0.2-0.1,0.2c0,0-0.1,0.1-0.2,0.1c-0.1,0-0.1,0-0.2-0.1
	c0,0-0.1-0.1-0.1-0.2v-1.1H80v2.4h1.6v-0.5c0-0.1,0-0.2,0.1-0.2c0,0,0.1-0.1,0.2-0.1c0.1,0,0.1,0,0.1,0.1c0,0,0.1,0.1,0.1,0.2v1.5
	c0,0.1,0,0.2-0.1,0.2c0,0-0.1,0.1-0.1,0.1c-0.1,0-0.1,0-0.2-0.1c0,0-0.1-0.1-0.1-0.2v-0.5H80z M87,112.9v1.2c0.6-0.5,1-0.9,1.3-1
	c0.3-0.2,0.6-0.2,0.8-0.2c0.3,0,0.5,0.1,0.7,0.3c0.2,0.2,0.4,0.3,0.4,0.4c0,0.1,0,0.1-0.1,0.2c0,0-0.1,0.1-0.2,0.1c0,0-0.1,0-0.1,0
	c0,0-0.1,0-0.1-0.1c-0.1-0.1-0.2-0.2-0.3-0.3c-0.1,0-0.2-0.1-0.3-0.1c-0.2,0-0.4,0.1-0.7,0.2c-0.3,0.2-0.8,0.5-1.4,1.2v2.5h2
	c0.1,0,0.2,0,0.2,0.1c0,0,0.1,0.1,0.1,0.2c0,0.1,0,0.1-0.1,0.2c0,0-0.1,0.1-0.2,0.1h-3.6c-0.1,0-0.2,0-0.2-0.1c0,0-0.1-0.1-0.1-0.2
	c0-0.1,0-0.1,0.1-0.2c0,0,0.1-0.1,0.2-0.1h1.1v-3.8h-0.8c-0.1,0-0.2,0-0.2-0.1c0,0-0.1-0.1-0.1-0.2c0-0.1,0-0.1,0.1-0.2
	c0,0,0.1-0.1,0.2-0.1H87z M95.3,117.6v-0.6c-0.7,0.5-1.4,0.8-2.1,0.8c-0.5,0-1-0.1-1.3-0.4c-0.3-0.3-0.5-0.6-0.5-1
	c0-0.4,0.2-0.8,0.6-1.1c0.4-0.3,1-0.5,1.8-0.5c0.2,0,0.4,0,0.7,0c0.2,0,0.5,0.1,0.8,0.1v-0.7c0-0.2-0.1-0.5-0.3-0.6
	c-0.2-0.2-0.6-0.3-1-0.3c-0.4,0-0.8,0.1-1.5,0.3c-0.1,0-0.2,0.1-0.2,0.1c-0.1,0-0.1,0-0.2-0.1c0,0-0.1-0.1-0.1-0.2
	c0-0.1,0-0.1,0.1-0.1c0-0.1,0.2-0.1,0.6-0.2c0.6-0.2,1-0.2,1.3-0.2c0.6,0,1,0.1,1.3,0.4c0.3,0.3,0.5,0.6,0.5,0.9v3h0.6
	c0.1,0,0.2,0,0.2,0.1c0,0,0.1,0.1,0.1,0.2c0,0.1,0,0.1-0.1,0.2c0,0-0.1,0.1-0.2,0.1H95.3z M95.3,115.3c-0.2-0.1-0.4-0.1-0.7-0.1
	c-0.2,0-0.5,0-0.7,0c-0.7,0-1.2,0.1-1.5,0.4c-0.3,0.2-0.4,0.5-0.4,0.8c0,0.3,0.1,0.5,0.3,0.7c0.2,0.2,0.5,0.3,0.9,0.3
	c0.4,0,0.8-0.1,1.1-0.2c0.3-0.2,0.7-0.4,1-0.7V115.3z M99,112.9v0.7c0.3-0.3,0.6-0.5,0.8-0.7c0.3-0.1,0.5-0.2,0.9-0.2
	c0.3,0,0.7,0.1,0.9,0.2c0.2,0.1,0.4,0.3,0.5,0.5c0.2,0.2,0.2,0.5,0.2,0.8v2.8h0.4c0.1,0,0.2,0,0.2,0.1c0,0,0.1,0.1,0.1,0.2
	c0,0.1,0,0.1-0.1,0.2c0,0-0.1,0.1-0.2,0.1h-1.2c-0.1,0-0.2,0-0.2-0.1c0,0-0.1-0.1-0.1-0.2c0-0.1,0-0.1,0.1-0.2c0,0,0.1-0.1,0.2-0.1
	h0.4v-2.8c0-0.3-0.1-0.6-0.4-0.8c-0.2-0.2-0.5-0.3-0.9-0.3c-0.3,0-0.6,0.1-0.8,0.2c-0.2,0.1-0.5,0.4-0.9,0.9v2.8h0.5
	c0.1,0,0.2,0,0.2,0.1c0,0,0.1,0.1,0.1,0.2c0,0.1,0,0.1-0.1,0.2c0,0-0.1,0.1-0.2,0.1H98c-0.1,0-0.2,0-0.2-0.1c0,0-0.1-0.1-0.1-0.2
	c0-0.1,0-0.1,0.1-0.2c0,0,0.1-0.1,0.2-0.1h0.5v-3.8h-0.4c-0.1,0-0.2,0-0.2-0.1c0,0-0.1-0.1-0.1-0.2c0-0.1,0-0.1,0.1-0.2
	c0,0,0.1-0.1,0.2-0.1H99z M108.8,113.3v-0.1c0-0.1,0-0.2,0.1-0.2c0,0,0.1-0.1,0.2-0.1c0.1,0,0.1,0,0.2,0.1c0,0,0.1,0.1,0.1,0.2v1
	c0,0.1,0,0.2-0.1,0.2c0,0-0.1,0.1-0.2,0.1c-0.1,0-0.1,0-0.2-0.1c0,0-0.1-0.1-0.1-0.2c0-0.2-0.2-0.5-0.5-0.7s-0.7-0.3-1.3-0.3
	c-0.7,0-1.2,0.2-1.5,0.6c-0.3,0.4-0.5,0.9-0.5,1.4c0,0.6,0.2,1.1,0.6,1.5c0.4,0.4,0.9,0.6,1.5,0.6c0.3,0,0.7-0.1,1.1-0.2
	c0.4-0.1,0.7-0.3,1-0.6c0.1-0.1,0.1-0.1,0.2-0.1c0.1,0,0.1,0,0.2,0.1c0,0,0.1,0.1,0.1,0.1c0,0.2-0.2,0.4-0.5,0.6
	c-0.6,0.4-1.2,0.6-2,0.6c-0.7,0-1.3-0.2-1.8-0.7c-0.5-0.5-0.7-1.1-0.7-1.8c0-0.7,0.2-1.3,0.7-1.8c0.5-0.5,1.1-0.7,1.8-0.7
	C107.8,112.7,108.3,112.9,108.8,113.3z M115.8,115.3h-4.6c0.1,0.6,0.3,1.1,0.7,1.4c0.4,0.4,0.9,0.5,1.5,0.5c0.3,0,0.7-0.1,1.1-0.2
	c0.4-0.1,0.7-0.3,0.9-0.5c0.1,0,0.1-0.1,0.2-0.1s0.1,0,0.1,0.1c0,0,0.1,0.1,0.1,0.2c0,0.1,0,0.1-0.1,0.2c-0.2,0.2-0.5,0.4-0.9,0.5
	c-0.4,0.2-0.9,0.2-1.4,0.2c-0.8,0-1.4-0.3-1.9-0.8c-0.5-0.5-0.8-1.1-0.8-1.8c0-0.7,0.2-1.2,0.7-1.7c0.5-0.5,1.1-0.7,1.8-0.7
	c0.7,0,1.3,0.2,1.8,0.7C115.6,113.9,115.8,114.6,115.8,115.3z M115.4,114.9c-0.1-0.5-0.3-0.9-0.7-1.2c-0.4-0.3-0.8-0.5-1.4-0.5
	s-1,0.2-1.4,0.5c-0.4,0.3-0.6,0.7-0.7,1.2H115.4z"/>
<path class="st8" d="M83,129.4c-0.2,0.4-0.5,0.7-0.8,0.9c-0.3,0.2-0.6,0.3-1,0.3c-0.3,0-0.6-0.1-0.9-0.3c-0.3-0.2-0.5-0.4-0.7-0.8
	c-0.2-0.4-0.3-0.7-0.3-1.1c0-0.6,0.2-1.1,0.5-1.5c0.3-0.5,0.8-0.7,1.4-0.7c0.4,0,0.8,0.1,1.1,0.4c0.3,0.2,0.6,0.6,0.8,1.1
	c0.2,0.6,0.4,1.3,0.4,2.2c0,0.6-0.1,1.2-0.3,1.6c-0.1,0.3-0.3,0.6-0.6,0.8c-0.3,0.3-0.6,0.5-0.9,0.7c-0.5,0.2-0.9,0.3-1.4,0.3
	c-0.3,0-0.6-0.1-0.8-0.2c-0.1-0.1-0.1-0.1-0.1-0.2c0-0.1,0-0.1,0.1-0.1c0,0,0.1-0.1,0.2-0.1c0,0,0.1,0,0.2,0.1
	c0.1,0.1,0.3,0.1,0.5,0.1c0.8,0,1.4-0.3,2-0.8c0.6-0.6,0.8-1.3,0.8-2.1C83,129.9,83,129.7,83,129.4z M82.9,128.6
	c-0.2-0.7-0.4-1.2-0.7-1.5c-0.3-0.3-0.6-0.4-1-0.4c-0.4,0-0.7,0.2-1,0.5c-0.3,0.3-0.4,0.7-0.4,1.2c0,0.5,0.1,0.9,0.4,1.2
	c0.3,0.3,0.6,0.5,1,0.5c0.2,0,0.4-0.1,0.6-0.2c0.2-0.1,0.4-0.3,0.6-0.5C82.5,129.3,82.7,129,82.9,128.6z M87.5,131.9h0.2
	c0.2,0,0.4,0.1,0.5,0.2c0.1,0.1,0.2,0.3,0.2,0.5c0,0.2-0.1,0.4-0.2,0.5c-0.1,0.1-0.3,0.2-0.5,0.2h-0.2c-0.2,0-0.4-0.1-0.5-0.2
	c-0.1-0.1-0.2-0.3-0.2-0.5c0-0.2,0.1-0.4,0.2-0.5C87.1,132,87.3,131.9,87.5,131.9z M95,129.5c0.4,0.2,0.7,0.4,0.9,0.8
	c0.2,0.3,0.3,0.7,0.3,1c0,0.5-0.2,1-0.7,1.4c-0.4,0.4-1,0.6-1.6,0.6c-0.4,0-0.8-0.1-1.2-0.2c-0.4-0.2-0.7-0.3-0.9-0.5
	c-0.1-0.1-0.1-0.1-0.1-0.2c0-0.1,0-0.1,0.1-0.1c0,0,0.1-0.1,0.2-0.1s0.1,0,0.2,0.1c0.6,0.4,1.1,0.6,1.8,0.6c0.5,0,1-0.2,1.3-0.5
	c0.4-0.3,0.5-0.7,0.5-1.1c0-0.3-0.1-0.5-0.3-0.8s-0.4-0.5-0.8-0.6c-0.3-0.2-0.7-0.2-1-0.2c-0.1,0-0.2,0-0.2-0.1c0,0-0.1-0.1-0.1-0.2
	s0-0.1,0.1-0.2c0,0,0.1-0.1,0.2-0.1l0.4,0c0.4,0,0.7-0.1,1-0.4c0.3-0.2,0.4-0.5,0.4-0.9c0-0.3-0.1-0.6-0.4-0.9
	c-0.3-0.3-0.6-0.4-1.1-0.4c-0.3,0-0.6,0.1-0.9,0.2c-0.3,0.1-0.5,0.3-0.6,0.4c-0.1,0.1-0.1,0.1-0.1,0.1c0,0-0.1,0-0.1,0
	c-0.1,0-0.1,0-0.2-0.1c0,0-0.1-0.1-0.1-0.1c0-0.1,0.2-0.3,0.5-0.5c0.4-0.3,0.9-0.5,1.5-0.5c0.6,0,1,0.2,1.4,0.5
	c0.4,0.3,0.6,0.8,0.6,1.2c0,0.3-0.1,0.6-0.3,0.9C95.6,129.2,95.3,129.4,95,129.5z M101.2,127.7c0,0.4-0.1,0.7-0.4,1
	c-0.3,0.3-0.6,0.4-1,0.4c-0.4,0-0.7-0.1-1-0.4c-0.3-0.3-0.4-0.6-0.4-1c0-0.4,0.1-0.7,0.4-1c0.3-0.3,0.6-0.4,1-0.4
	c0.4,0,0.7,0.1,1,0.4C101,127,101.2,127.3,101.2,127.7z M100.8,127.7c0-0.3-0.1-0.6-0.3-0.8c-0.2-0.2-0.5-0.3-0.7-0.3
	c-0.3,0-0.5,0.1-0.7,0.3c-0.2,0.2-0.3,0.5-0.3,0.8c0,0.3,0.1,0.6,0.3,0.8c0.2,0.2,0.5,0.3,0.7,0.3c0.3,0,0.5-0.1,0.7-0.3
	C100.7,128.3,100.8,128,100.8,127.7z M102.6,129.3l-4.2,1.4c-0.1,0-0.1,0-0.1,0c0,0-0.1,0-0.1,0c0,0,0-0.1,0-0.1c0,0,0-0.1,0-0.1
	c0,0,0.1-0.1,0.1-0.1l4.2-1.4c0,0,0.1,0,0.1,0c0,0,0.1,0,0.1,0.1c0,0,0.1,0.1,0.1,0.1s0,0.1,0,0.1
	C102.7,129.3,102.7,129.3,102.6,129.3z M102.5,131.9c0,0.4-0.1,0.7-0.4,1c-0.3,0.3-0.6,0.4-1,0.4c-0.4,0-0.7-0.1-1-0.4
	c-0.3-0.3-0.4-0.6-0.4-1c0-0.4,0.1-0.7,0.4-1c0.3-0.3,0.6-0.4,1-0.4s0.7,0.1,1,0.4C102.4,131.2,102.5,131.6,102.5,131.9z
	 M102.2,131.9c0-0.3-0.1-0.6-0.3-0.8c-0.2-0.2-0.5-0.3-0.7-0.3s-0.5,0.1-0.7,0.3c-0.2,0.2-0.3,0.5-0.3,0.8s0.1,0.6,0.3,0.8
	c0.2,0.2,0.5,0.3,0.7,0.3s0.5-0.1,0.7-0.3C102.1,132.5,102.2,132.2,102.2,131.9z"/>
<path class="st9" d="M77.8,122.6h115.3l84.5-21.7"/>
<path class="st8" d="M279.5,100.9c0-1-0.8-1.8-1.8-1.8c-1,0-1.8,0.8-1.8,1.8s0.8,1.8,1.8,1.8C278.7,102.7,279.5,101.9,279.5,100.9"
	/>
<path class="st1" d="M83.3,140.3v3.8c0,0.6-0.2,1.2-0.6,1.6c-0.4,0.4-0.9,0.6-1.5,0.6c-0.4,0-0.8-0.1-1.1-0.3
	c-0.3-0.2-0.6-0.4-0.8-0.8c-0.2-0.4-0.3-0.8-0.3-1.2v-3.8h-0.4c-0.1,0-0.2,0-0.2-0.1c0,0-0.1-0.1-0.1-0.2c0-0.1,0-0.1,0.1-0.2
	c0,0,0.1-0.1,0.2-0.1h1.7c0.1,0,0.2,0,0.2,0.1c0,0,0.1,0.1,0.1,0.2c0,0.1,0,0.1-0.1,0.2c0,0-0.1,0.1-0.2,0.1h-0.8v3.8
	c0,0.5,0.2,0.9,0.5,1.3c0.3,0.3,0.7,0.5,1.2,0.5c0.3,0,0.6-0.1,0.8-0.2c0.2-0.1,0.5-0.4,0.6-0.6c0.2-0.3,0.3-0.6,0.3-1v-3.8H82
	c-0.1,0-0.2,0-0.2-0.1c0,0-0.1-0.1-0.1-0.2c0-0.1,0-0.1,0.1-0.2c0,0,0.1-0.1,0.2-0.1h1.7c0.1,0,0.2,0,0.2,0.1c0,0,0.1,0.1,0.1,0.2
	c0,0.1,0,0.1-0.1,0.2c0,0-0.1,0.1-0.2,0.1H83.3z M86.1,141.4v0.7c0.3-0.3,0.6-0.5,0.8-0.7c0.3-0.1,0.5-0.2,0.9-0.2
	c0.3,0,0.7,0.1,0.9,0.2c0.2,0.1,0.4,0.3,0.5,0.5c0.2,0.2,0.2,0.5,0.2,0.8v2.8H90c0.1,0,0.2,0,0.2,0.1c0,0,0.1,0.1,0.1,0.2
	c0,0.1,0,0.1-0.1,0.2c0,0-0.1,0.1-0.2,0.1h-1.2c-0.1,0-0.2,0-0.2-0.1c0,0-0.1-0.1-0.1-0.2c0-0.1,0-0.1,0.1-0.2c0,0,0.1-0.1,0.2-0.1
	h0.4v-2.8c0-0.3-0.1-0.6-0.4-0.8c-0.2-0.2-0.5-0.3-0.9-0.3c-0.3,0-0.6,0.1-0.8,0.2c-0.2,0.1-0.5,0.4-0.9,0.9v2.8h0.5
	c0.1,0,0.2,0,0.2,0.1c0,0,0.1,0.1,0.1,0.2c0,0.1,0,0.1-0.1,0.2c0,0-0.1,0.1-0.2,0.1h-1.5c-0.1,0-0.2,0-0.2-0.1c0,0-0.1-0.1-0.1-0.2
	c0-0.1,0-0.1,0.1-0.2c0,0,0.1-0.1,0.2-0.1h0.5v-3.8h-0.4c-0.1,0-0.2,0-0.2-0.1c0,0-0.1-0.1-0.1-0.2c0-0.1,0-0.1,0.1-0.2
	c0,0,0.1-0.1,0.2-0.1H86.1z M94.2,139.1v1.2h-0.7v-1.2H94.2z M94.3,141.4v4.2H96c0.1,0,0.2,0,0.2,0.1c0,0,0.1,0.1,0.1,0.2
	c0,0.1,0,0.1-0.1,0.2c0,0-0.1,0.1-0.2,0.1h-4c-0.1,0-0.2,0-0.2-0.1c0,0-0.1-0.1-0.1-0.2c0-0.1,0-0.1,0.1-0.2c0,0,0.1-0.1,0.2-0.1
	h1.8v-3.8h-1.3c-0.1,0-0.2,0-0.2-0.1c0,0-0.1-0.1-0.1-0.2c0-0.1,0-0.1,0.1-0.2c0,0,0.1-0.1,0.2-0.1H94.3z M99.5,141.4h2.5
	c0.1,0,0.2,0,0.2,0.1c0,0,0.1,0.1,0.1,0.2c0,0.1,0,0.1-0.1,0.2c0,0-0.1,0.1-0.2,0.1h-2.5v3c0,0.3,0.1,0.5,0.3,0.7
	c0.2,0.2,0.5,0.3,0.9,0.3c0.3,0,0.6,0,1-0.1c0.4-0.1,0.6-0.2,0.8-0.3c0.1,0,0.1-0.1,0.2-0.1c0.1,0,0.1,0,0.1,0.1
	c0,0,0.1,0.1,0.1,0.2c0,0,0,0.1-0.1,0.1c-0.1,0.1-0.4,0.2-0.8,0.4c-0.4,0.1-0.9,0.2-1.3,0.2c-0.5,0-0.9-0.1-1.3-0.4
	c-0.3-0.2-0.5-0.6-0.5-1v-3h-0.8c-0.1,0-0.2,0-0.2-0.1c0,0-0.1-0.1-0.1-0.2c0-0.1,0-0.1,0.1-0.2c0,0,0.1-0.1,0.2-0.1h0.8v-1.3
	c0-0.1,0-0.2,0.1-0.2c0,0,0.1-0.1,0.2-0.1s0.1,0,0.2,0.1c0,0,0.1,0.1,0.1,0.2V141.4z M109.4,143.9h-4.6c0.1,0.6,0.3,1.1,0.7,1.4
	c0.4,0.4,0.9,0.5,1.5,0.5c0.3,0,0.7-0.1,1.1-0.2c0.4-0.1,0.7-0.3,0.9-0.5c0.1,0,0.1-0.1,0.2-0.1s0.1,0,0.1,0.1c0,0,0.1,0.1,0.1,0.2
	c0,0.1,0,0.1-0.1,0.2c-0.2,0.2-0.5,0.4-0.9,0.5c-0.4,0.2-0.9,0.2-1.4,0.2c-0.8,0-1.4-0.3-1.9-0.8c-0.5-0.5-0.8-1.1-0.8-1.8
	c0-0.7,0.2-1.2,0.7-1.7c0.5-0.5,1.1-0.7,1.8-0.7c0.7,0,1.3,0.2,1.8,0.7C109.1,142.5,109.4,143.1,109.4,143.9z M108.9,143.4
	c-0.1-0.5-0.3-0.9-0.7-1.2c-0.4-0.3-0.8-0.5-1.4-0.5c-0.5,0-1,0.2-1.4,0.5c-0.4,0.3-0.6,0.7-0.7,1.2H108.9z M115.6,139.3v6.3h0.6
	c0.1,0,0.2,0,0.2,0.1c0,0,0.1,0.1,0.1,0.2c0,0.1,0,0.1-0.1,0.2c0,0-0.1,0.1-0.2,0.1h-1.1v-0.9c-0.5,0.7-1.2,1.1-2,1.1
	c-0.4,0-0.8-0.1-1.2-0.3c-0.4-0.2-0.7-0.5-0.9-0.9c-0.2-0.4-0.3-0.8-0.3-1.3s0.1-0.8,0.3-1.2c0.2-0.4,0.5-0.7,0.9-0.9
	c0.4-0.2,0.8-0.3,1.2-0.3c0.8,0,1.5,0.4,2,1.1v-2.6h-0.6c-0.1,0-0.2,0-0.2-0.1c0,0-0.1-0.1-0.1-0.2c0-0.1,0-0.1,0.1-0.2
	c0,0,0.1-0.1,0.2-0.1H115.6z M115.1,143.8c0-0.6-0.2-1.1-0.6-1.5c-0.4-0.4-0.8-0.6-1.4-0.6s-1,0.2-1.4,0.6c-0.4,0.4-0.6,0.9-0.6,1.5
	s0.2,1.1,0.6,1.5c0.4,0.4,0.9,0.6,1.4,0.6s1-0.2,1.4-0.6C114.9,144.8,115.1,144.4,115.1,143.8z M124.8,143.6v2h0.8
	c0.1,0,0.2,0,0.2,0.1c0,0,0.1,0.1,0.1,0.2c0,0.1,0,0.1-0.1,0.2c0,0-0.1,0.1-0.2,0.1h-1.9c-0.1,0-0.2,0-0.2-0.1c0,0-0.1-0.1-0.1-0.2
	c0-0.1,0-0.1,0.1-0.2c0,0,0.1-0.1,0.2-0.1h0.6v-5.4h-0.6c-0.1,0-0.2,0-0.2-0.1c0,0-0.1-0.1-0.1-0.2c0-0.1,0-0.1,0.1-0.2
	c0,0,0.1-0.1,0.2-0.1h1.9c0.1,0,0.2,0,0.2,0.1c0,0,0.1,0.1,0.1,0.2c0,0.1,0,0.1-0.1,0.2c0,0-0.1,0.1-0.2,0.1h-0.8v2.8l3.1-2.8h-0.5
	c-0.1,0-0.2,0-0.2-0.1c0,0-0.1-0.1-0.1-0.2c0-0.1,0-0.1,0.1-0.2c0,0,0.1-0.1,0.2-0.1h1.3c0.1,0,0.2,0,0.2,0.1c0,0,0.1,0.1,0.1,0.2
	c0,0.1,0,0.1-0.1,0.2c0,0-0.1,0.1-0.2,0.1h-0.2l-2.5,2.2c0.4,0.1,0.7,0.3,0.9,0.6c0.2,0.2,0.5,0.6,0.7,1c0.1,0.2,0.4,0.8,0.7,1.6
	h0.6c0.1,0,0.2,0,0.2,0.1c0,0,0.1,0.1,0.1,0.2c0,0.1,0,0.1-0.1,0.2c0,0-0.1,0.1-0.2,0.1h-0.9c-0.5-1.3-0.9-2.1-1.2-2.5
	s-0.7-0.6-1.2-0.8L124.8,143.6z M132.9,139.1v1.2h-0.7v-1.2H132.9z M132.9,141.4v4.2h1.8c0.1,0,0.2,0,0.2,0.1c0,0,0.1,0.1,0.1,0.2
	c0,0.1,0,0.1-0.1,0.2c0,0-0.1,0.1-0.2,0.1h-4c-0.1,0-0.2,0-0.2-0.1c0,0-0.1-0.1-0.1-0.2c0-0.1,0-0.1,0.1-0.2c0,0,0.1-0.1,0.2-0.1
	h1.8v-3.8h-1.3c-0.1,0-0.2,0-0.2-0.1c0,0-0.1-0.1-0.1-0.2c0-0.1,0-0.1,0.1-0.2c0,0,0.1-0.1,0.2-0.1H132.9z M137.7,141.4v0.7
	c0.3-0.3,0.6-0.5,0.8-0.7c0.3-0.1,0.5-0.2,0.9-0.2c0.3,0,0.7,0.1,0.9,0.2c0.2,0.1,0.4,0.3,0.5,0.5c0.2,0.2,0.2,0.5,0.2,0.8v2.8h0.4
	c0.1,0,0.2,0,0.2,0.1c0,0,0.1,0.1,0.1,0.2c0,0.1,0,0.1-0.1,0.2c0,0-0.1,0.1-0.2,0.1h-1.2c-0.1,0-0.2,0-0.2-0.1c0,0-0.1-0.1-0.1-0.2
	c0-0.1,0-0.1,0.1-0.2c0,0,0.1-0.1,0.2-0.1h0.4v-2.8c0-0.3-0.1-0.6-0.4-0.8c-0.2-0.2-0.5-0.3-0.9-0.3c-0.3,0-0.6,0.1-0.8,0.2
	c-0.2,0.1-0.5,0.4-0.9,0.9v2.8h0.5c0.1,0,0.2,0,0.2,0.1c0,0,0.1,0.1,0.1,0.2c0,0.1,0,0.1-0.1,0.2c0,0-0.1,0.1-0.2,0.1h-1.5
	c-0.1,0-0.2,0-0.2-0.1c0,0-0.1-0.1-0.1-0.2c0-0.1,0-0.1,0.1-0.2c0,0,0.1-0.1,0.2-0.1h0.5v-3.8h-0.4c-0.1,0-0.2,0-0.2-0.1
	c0,0-0.1-0.1-0.1-0.2c0-0.1,0-0.1,0.1-0.2c0,0,0.1-0.1,0.2-0.1H137.7z M147.1,142.3v-0.8h1.1c0.1,0,0.2,0,0.2,0.1
	c0,0,0.1,0.1,0.1,0.2c0,0.1,0,0.1-0.1,0.2c0,0-0.1,0.1-0.2,0.1h-0.6v4.5c0,0.3-0.1,0.6-0.2,0.8c-0.1,0.2-0.2,0.3-0.4,0.5
	c-0.2,0.2-0.4,0.3-0.5,0.4c-0.2,0.1-0.4,0.1-0.7,0.1h-1.3c-0.1,0-0.2,0-0.2-0.1c0,0-0.1-0.1-0.1-0.2c0-0.1,0-0.1,0.1-0.2
	c0,0,0.1-0.1,0.2-0.1h1.3c0.3,0,0.5-0.1,0.7-0.2c0.2-0.1,0.4-0.3,0.5-0.6c0.1-0.1,0.1-0.3,0.1-0.6V145c-0.5,0.7-1.1,1-1.9,1
	c-0.6,0-1.2-0.2-1.6-0.7c-0.5-0.5-0.7-1-0.7-1.7c0-0.7,0.2-1.2,0.7-1.7c0.5-0.5,1-0.7,1.6-0.7C146,141.3,146.6,141.6,147.1,142.3z
	 M147.1,143.6c0-0.5-0.2-1-0.5-1.4c-0.4-0.4-0.8-0.5-1.3-0.5c-0.5,0-0.9,0.2-1.3,0.6c-0.4,0.4-0.5,0.8-0.5,1.3c0,0.5,0.2,1,0.5,1.4
	c0.4,0.4,0.8,0.5,1.3,0.5c0.5,0,0.9-0.2,1.3-0.5C146.9,144.6,147.1,144.2,147.1,143.6z M154.3,139.3v6.3h0.6c0.1,0,0.2,0,0.2,0.1
	c0,0,0.1,0.1,0.1,0.2c0,0.1,0,0.1-0.1,0.2c0,0-0.1,0.1-0.2,0.1h-1.1v-0.9c-0.5,0.7-1.2,1.1-2,1.1c-0.4,0-0.8-0.1-1.2-0.3
	c-0.4-0.2-0.7-0.5-0.9-0.9s-0.3-0.8-0.3-1.3s0.1-0.8,0.3-1.2c0.2-0.4,0.5-0.7,0.9-0.9c0.4-0.2,0.8-0.3,1.2-0.3c0.8,0,1.5,0.4,2,1.1
	v-2.6h-0.6c-0.1,0-0.2,0-0.2-0.1c0,0-0.1-0.1-0.1-0.2c0-0.1,0-0.1,0.1-0.2c0,0,0.1-0.1,0.2-0.1H154.3z M153.8,143.8
	c0-0.6-0.2-1.1-0.6-1.5c-0.4-0.4-0.8-0.6-1.4-0.6s-1,0.2-1.4,0.6c-0.4,0.4-0.6,0.9-0.6,1.5s0.2,1.1,0.6,1.5c0.4,0.4,0.9,0.6,1.4,0.6
	s1-0.2,1.4-0.6C153.6,144.8,153.8,144.4,153.8,143.8z M161,143.8c0,0.7-0.2,1.3-0.7,1.8c-0.5,0.5-1.1,0.7-1.8,0.7
	c-0.7,0-1.3-0.2-1.8-0.7c-0.5-0.5-0.7-1.1-0.7-1.8s0.2-1.3,0.7-1.8c0.5-0.5,1.1-0.7,1.8-0.7c0.7,0,1.3,0.2,1.8,0.7
	C160.8,142.5,161,143.1,161,143.8z M160.6,143.8c0-0.6-0.2-1-0.6-1.4c-0.4-0.4-0.9-0.6-1.5-0.6s-1.1,0.2-1.5,0.6
	c-0.4,0.4-0.6,0.9-0.6,1.4c0,0.6,0.2,1.1,0.6,1.5s0.9,0.6,1.5,0.6s1.1-0.2,1.5-0.6C160.4,144.8,160.6,144.3,160.6,143.8z
	 M162.9,141.4v0.5c0.4-0.4,0.8-0.6,1.2-0.6c0.2,0,0.4,0.1,0.6,0.2c0.2,0.1,0.3,0.3,0.4,0.6c0.2-0.2,0.4-0.4,0.6-0.6
	c0.2-0.1,0.4-0.2,0.6-0.2c0.3,0,0.6,0.1,0.8,0.3c0.3,0.3,0.4,0.6,0.4,0.9v3.2h0.4c0.1,0,0.2,0,0.2,0.1c0,0,0.1,0.1,0.1,0.2
	c0,0.1,0,0.1-0.1,0.2c0,0-0.1,0.1-0.2,0.1H167v-3.6c0-0.2-0.1-0.4-0.2-0.6c-0.1-0.2-0.3-0.2-0.5-0.2c-0.2,0-0.3,0.1-0.5,0.2
	c-0.2,0.1-0.4,0.4-0.6,0.7v3h0.4c0.1,0,0.2,0,0.2,0.1c0,0,0.1,0.1,0.1,0.2c0,0.1,0,0.1-0.1,0.2c0,0-0.1,0.1-0.2,0.1h-0.8v-3.5
	c0-0.2-0.1-0.5-0.2-0.6c-0.1-0.2-0.3-0.2-0.5-0.2c-0.2,0-0.3,0.1-0.5,0.2c-0.2,0.1-0.5,0.4-0.7,0.8v3h0.4c0.1,0,0.2,0,0.2,0.1
	c0,0,0.1,0.1,0.1,0.2c0,0.1,0,0.1-0.1,0.2c0,0-0.1,0.1-0.2,0.1H162c-0.1,0-0.2,0-0.2-0.1c0,0-0.1-0.1-0.1-0.2c0-0.1,0-0.1,0.1-0.2
	c0,0,0.1-0.1,0.2-0.1h0.4v-3.8H162c-0.1,0-0.2,0-0.2-0.1c0,0-0.1-0.1-0.1-0.2c0-0.1,0-0.1,0.1-0.2c0,0,0.1-0.1,0.2-0.1H162.9z"/>
<path class="st8" d="M79.2,161.3h3.5v-0.2c0-0.1,0-0.2,0.1-0.2c0,0,0.1-0.1,0.2-0.1c0.1,0,0.1,0,0.2,0.1c0,0,0.1,0.1,0.1,0.2v0.6
	h-4.4v-0.7c0.9-0.8,1.8-1.7,2.7-2.5c0.4-0.4,0.7-0.7,0.8-0.9c0.2-0.2,0.3-0.4,0.3-0.5c0.1-0.1,0.1-0.3,0.1-0.4c0-0.4-0.2-0.7-0.5-1
	c-0.3-0.3-0.7-0.4-1.1-0.4c-0.4,0-0.7,0.1-1.1,0.3c-0.3,0.2-0.5,0.5-0.6,0.8c0,0.1-0.1,0.1-0.1,0.2c0,0-0.1,0-0.1,0
	c-0.1,0-0.1,0-0.2-0.1c0,0-0.1-0.1-0.1-0.1c0-0.2,0.1-0.4,0.3-0.7c0.2-0.3,0.5-0.5,0.8-0.7c0.3-0.2,0.7-0.3,1-0.3
	c0.6,0,1.1,0.2,1.5,0.6c0.4,0.4,0.6,0.8,0.6,1.3c0,0.2,0,0.4-0.1,0.6c-0.1,0.2-0.2,0.4-0.3,0.6c-0.2,0.2-0.5,0.5-0.9,0.9
	C80.7,159.9,79.9,160.7,79.2,161.3L79.2,161.3z M87.5,160.5h0.2c0.2,0,0.4,0.1,0.5,0.2c0.1,0.1,0.2,0.3,0.2,0.5
	c0,0.2-0.1,0.4-0.2,0.5c-0.1,0.1-0.3,0.2-0.5,0.2h-0.2c-0.2,0-0.4-0.1-0.5-0.2c-0.1-0.1-0.2-0.3-0.2-0.5c0-0.2,0.1-0.4,0.2-0.5
	C87.1,160.5,87.3,160.5,87.5,160.5z M95.5,155.6v-0.2h-3.2v0.4c0,0.1,0,0.2-0.1,0.2c0,0-0.1,0.1-0.2,0.1c-0.1,0-0.1,0-0.2-0.1
	c0,0-0.1-0.1-0.1-0.2V155H96v0.7l-1.8,5.8c0,0.1-0.1,0.1-0.1,0.2c0,0-0.1,0-0.1,0c-0.1,0-0.1,0-0.2-0.1c0,0-0.1-0.1-0.1-0.2
	c0,0,0-0.1,0-0.2L95.5,155.6z M101.2,156.3c0,0.4-0.1,0.7-0.4,1c-0.3,0.3-0.6,0.4-1,0.4c-0.4,0-0.7-0.1-1-0.4
	c-0.3-0.3-0.4-0.6-0.4-1c0-0.4,0.1-0.7,0.4-1c0.3-0.3,0.6-0.4,1-0.4c0.4,0,0.7,0.1,1,0.4C101,155.6,101.2,155.9,101.2,156.3z
	 M100.8,156.3c0-0.3-0.1-0.6-0.3-0.8c-0.2-0.2-0.5-0.3-0.7-0.3c-0.3,0-0.5,0.1-0.7,0.3c-0.2,0.2-0.3,0.5-0.3,0.8
	c0,0.3,0.1,0.6,0.3,0.8c0.2,0.2,0.5,0.3,0.7,0.3c0.3,0,0.5-0.1,0.7-0.3C100.7,156.8,100.8,156.6,100.8,156.3z M102.6,157.8l-4.2,1.4
	c-0.1,0-0.1,0-0.1,0c0,0-0.1,0-0.1,0c0,0,0-0.1,0-0.1c0,0,0-0.1,0-0.1c0,0,0.1-0.1,0.1-0.1l4.2-1.4c0,0,0.1,0,0.1,0
	c0,0,0.1,0,0.1,0.1c0,0,0.1,0.1,0.1,0.1c0,0,0,0.1,0,0.1C102.7,157.8,102.7,157.8,102.6,157.8z M102.5,160.5c0,0.4-0.1,0.7-0.4,1
	c-0.3,0.3-0.6,0.4-1,0.4c-0.4,0-0.7-0.1-1-0.4c-0.3-0.3-0.4-0.6-0.4-1c0-0.4,0.1-0.7,0.4-1c0.3-0.3,0.6-0.4,1-0.4s0.7,0.1,1,0.4
	C102.4,159.8,102.5,160.1,102.5,160.5z M102.2,160.5c0-0.3-0.1-0.6-0.3-0.8c-0.2-0.2-0.5-0.3-0.7-0.3s-0.5,0.1-0.7,0.3
	c-0.2,0.2-0.3,0.5-0.3,0.8c0,0.3,0.1,0.6,0.3,0.8c0.2,0.2,0.5,0.3,0.7,0.3s0.5-0.1,0.7-0.3C102.1,161,102.2,160.8,102.2,160.5z"/>
<path class="st9" d="M77.8,151.2h115.3l45.5-20.1"/>
<path class="st8" d="M240.4,131.1c0-1-0.8-1.8-1.8-1.8s-1.8,0.8-1.8,1.8c0,1,0.8,1.8,1.8,1.8S240.4,132.1,240.4,131.1"/>
<path class="st1" d="M79.7,273.5v2.4h0.8c0.1,0,0.2,0,0.2,0.1c0,0,0.1,0.1,0.1,0.2c0,0.1,0,0.1-0.1,0.2c0,0-0.1,0.1-0.2,0.1h-1.9
	c-0.1,0-0.2,0-0.2-0.1c0,0-0.1-0.1-0.1-0.2c0-0.1,0-0.1,0.1-0.2c0,0,0.1-0.1,0.2-0.1h0.6v-5.4h-0.6c-0.1,0-0.2,0-0.2-0.1
	c0,0-0.1-0.1-0.1-0.2c0-0.1,0-0.1,0.1-0.2c0,0,0.1-0.1,0.2-0.1h2.7c0.6,0,1,0.2,1.4,0.5c0.4,0.4,0.6,0.8,0.6,1.2
	c0,0.3-0.1,0.6-0.4,0.9c-0.2,0.3-0.6,0.5-1.2,0.7c0.3,0.2,0.6,0.5,0.8,0.8c0.2,0.3,0.6,0.8,1.1,1.7h0.3c0.1,0,0.2,0,0.2,0.1
	c0,0,0.1,0.1,0.1,0.2c0,0.1,0,0.1-0.1,0.2c0,0-0.1,0.1-0.2,0.1h-0.6c-0.6-1-1-1.7-1.3-2c-0.3-0.3-0.7-0.6-1.1-0.8H79.7z M79.7,273
	h1.2c0.4,0,0.7-0.1,1.1-0.2c0.3-0.1,0.6-0.3,0.7-0.5c0.2-0.2,0.2-0.4,0.2-0.6c0-0.3-0.2-0.6-0.5-0.8c-0.3-0.3-0.7-0.4-1.1-0.4h-1.7
	V273z M89.1,276.3v-0.7c-0.6,0.6-1.3,0.8-2,0.8c-0.4,0-0.8-0.1-1-0.4c-0.3-0.3-0.4-0.7-0.4-1.1v-2.9h-0.6c-0.1,0-0.2,0-0.2-0.1
	c0,0-0.1-0.1-0.1-0.2c0-0.1,0-0.1,0.1-0.2c0,0,0.1-0.1,0.2-0.1h1.1v3.4c0,0.3,0.1,0.5,0.3,0.7c0.2,0.2,0.4,0.3,0.7,0.3
	c0.7,0,1.4-0.3,2-1v-2.9h-0.8c-0.1,0-0.2,0-0.2-0.1c0,0-0.1-0.1-0.1-0.2c0-0.1,0-0.1,0.1-0.2c0,0,0.1-0.1,0.2-0.1h1.3v4.2H90
	c0.1,0,0.2,0,0.2,0.1c0,0,0.1,0.1,0.1,0.2c0,0.1,0,0.1-0.1,0.2c0,0-0.1,0.1-0.2,0.1H89.1z M95.5,271.9c0-0.1,0-0.2,0.1-0.2
	c0,0,0.1-0.1,0.2-0.1c0.1,0,0.1,0,0.2,0.1c0,0,0.1,0.1,0.1,0.2v0.8c0,0.1,0,0.2-0.1,0.2c0,0-0.1,0.1-0.2,0.1c-0.1,0-0.1,0-0.2-0.1
	c0,0-0.1-0.1-0.1-0.2c0-0.2-0.1-0.4-0.3-0.5c-0.3-0.2-0.7-0.3-1.2-0.3c-0.5,0-0.9,0.1-1.2,0.3c-0.2,0.2-0.3,0.3-0.3,0.5
	c0,0.2,0.1,0.4,0.4,0.5c0.2,0.1,0.5,0.2,1,0.2c0.6,0.1,1.1,0.1,1.3,0.2c0.4,0.1,0.6,0.3,0.8,0.5c0.2,0.2,0.3,0.5,0.3,0.7
	c0,0.4-0.2,0.7-0.6,1c-0.4,0.3-0.9,0.4-1.6,0.4c-0.7,0-1.3-0.2-1.8-0.5c0,0.1,0,0.2,0,0.2c0,0,0,0.1-0.1,0.1c0,0-0.1,0-0.1,0
	c-0.1,0-0.1,0-0.2-0.1c0,0-0.1-0.1-0.1-0.2v-0.9c0-0.1,0-0.2,0.1-0.2c0,0,0.1-0.1,0.2-0.1c0.1,0,0.1,0,0.2,0.1c0,0,0.1,0.1,0.1,0.2
	c0,0.2,0,0.3,0.1,0.4c0.1,0.2,0.3,0.3,0.6,0.4c0.3,0.1,0.6,0.2,1,0.2c0.6,0,1-0.1,1.3-0.3c0.3-0.2,0.4-0.5,0.4-0.7
	c0-0.3-0.1-0.5-0.4-0.7c-0.3-0.2-0.7-0.3-1.3-0.3c-0.6-0.1-1-0.1-1.2-0.2c-0.2-0.1-0.4-0.2-0.6-0.4c-0.1-0.2-0.2-0.4-0.2-0.6
	c0-0.4,0.2-0.7,0.6-0.9c0.4-0.2,0.8-0.3,1.4-0.3C94.6,271.5,95.1,271.6,95.5,271.9z M102,271.9c0-0.1,0-0.2,0.1-0.2
	c0,0,0.1-0.1,0.2-0.1c0.1,0,0.1,0,0.2,0.1c0,0,0.1,0.1,0.1,0.2v0.8c0,0.1,0,0.2-0.1,0.2c0,0-0.1,0.1-0.2,0.1c-0.1,0-0.1,0-0.2-0.1
	c0,0-0.1-0.1-0.1-0.2c0-0.2-0.1-0.4-0.3-0.5c-0.3-0.2-0.7-0.3-1.2-0.3c-0.5,0-0.9,0.1-1.2,0.3c-0.2,0.2-0.3,0.3-0.3,0.5
	c0,0.2,0.1,0.4,0.4,0.5c0.2,0.1,0.5,0.2,1,0.2c0.6,0.1,1.1,0.1,1.3,0.2c0.4,0.1,0.6,0.3,0.8,0.5c0.2,0.2,0.3,0.5,0.3,0.7
	c0,0.4-0.2,0.7-0.6,1c-0.4,0.3-0.9,0.4-1.6,0.4c-0.7,0-1.3-0.2-1.8-0.5c0,0.1,0,0.2,0,0.2c0,0,0,0.1-0.1,0.1c0,0-0.1,0-0.1,0
	c-0.1,0-0.1,0-0.2-0.1c0,0-0.1-0.1-0.1-0.2v-0.9c0-0.1,0-0.2,0.1-0.2c0,0,0.1-0.1,0.2-0.1c0.1,0,0.1,0,0.2,0.1c0,0,0.1,0.1,0.1,0.2
	c0,0.2,0,0.3,0.1,0.4c0.1,0.2,0.3,0.3,0.6,0.4s0.6,0.2,1,0.2c0.6,0,1-0.1,1.3-0.3c0.3-0.2,0.4-0.5,0.4-0.7c0-0.3-0.1-0.5-0.4-0.7
	c-0.3-0.2-0.7-0.3-1.3-0.3s-1-0.1-1.2-0.2c-0.2-0.1-0.4-0.2-0.6-0.4c-0.1-0.2-0.2-0.4-0.2-0.6c0-0.4,0.2-0.7,0.6-0.9
	c0.4-0.2,0.8-0.3,1.4-0.3C101.1,271.5,101.6,271.6,102,271.9z M107.1,269.3v1.2h-0.7v-1.2H107.1z M107.2,271.6v4.2h1.8
	c0.1,0,0.2,0,0.2,0.1c0,0,0.1,0.1,0.1,0.2c0,0.1,0,0.1-0.1,0.2c0,0-0.1,0.1-0.2,0.1h-4c-0.1,0-0.2,0-0.2-0.1c0,0-0.1-0.1-0.1-0.2
	c0-0.1,0-0.1,0.1-0.2c0,0,0.1-0.1,0.2-0.1h1.8v-3.8h-1.3c-0.1,0-0.2,0-0.2-0.1c0,0-0.1-0.1-0.1-0.2c0-0.1,0-0.1,0.1-0.2
	c0,0,0.1-0.1,0.2-0.1H107.2z M114.7,276.3v-0.6c-0.7,0.5-1.4,0.8-2.1,0.8c-0.5,0-1-0.1-1.3-0.4c-0.3-0.3-0.5-0.6-0.5-1
	c0-0.4,0.2-0.8,0.6-1.1c0.4-0.3,1-0.5,1.8-0.5c0.2,0,0.4,0,0.7,0c0.2,0,0.5,0.1,0.8,0.1v-0.7c0-0.2-0.1-0.5-0.3-0.6
	c-0.2-0.2-0.6-0.3-1-0.3c-0.4,0-0.8,0.1-1.5,0.3c-0.1,0-0.2,0.1-0.2,0.1c-0.1,0-0.1,0-0.2-0.1c0,0-0.1-0.1-0.1-0.2
	c0-0.1,0-0.1,0.1-0.1c0-0.1,0.2-0.1,0.6-0.2c0.6-0.2,1-0.2,1.3-0.2c0.6,0,1,0.1,1.3,0.4c0.3,0.3,0.5,0.6,0.5,0.9v3h0.6
	c0.1,0,0.2,0,0.2,0.1c0,0,0.1,0.1,0.1,0.2c0,0.1,0,0.1-0.1,0.2c0,0-0.1,0.1-0.2,0.1H114.7z M114.7,274c-0.2-0.1-0.4-0.1-0.7-0.1
	s-0.5,0-0.7,0c-0.7,0-1.2,0.1-1.5,0.4c-0.3,0.2-0.4,0.5-0.4,0.8c0,0.3,0.1,0.5,0.3,0.7c0.2,0.2,0.5,0.3,0.9,0.3
	c0.4,0,0.8-0.1,1.1-0.2c0.3-0.2,0.7-0.4,1-0.7V274z"/>
<path class="st8" d="M82.1,288.3c0.4,0.2,0.7,0.4,0.9,0.8c0.2,0.3,0.3,0.7,0.3,1c0,0.5-0.2,1-0.7,1.4c-0.4,0.4-1,0.6-1.6,0.6
	c-0.4,0-0.8-0.1-1.2-0.2c-0.4-0.2-0.7-0.3-0.9-0.5c-0.1-0.1-0.1-0.1-0.1-0.2c0-0.1,0-0.1,0.1-0.1c0,0,0.1-0.1,0.2-0.1s0.1,0,0.2,0.1
	c0.6,0.4,1.1,0.6,1.8,0.6c0.5,0,1-0.2,1.3-0.5c0.4-0.3,0.5-0.7,0.5-1.1c0-0.3-0.1-0.5-0.3-0.8s-0.4-0.5-0.8-0.6
	c-0.3-0.2-0.7-0.2-1-0.2c-0.1,0-0.2,0-0.2-0.1c0,0-0.1-0.1-0.1-0.2c0-0.1,0-0.1,0.1-0.2c0,0,0.1-0.1,0.2-0.1l0.4,0
	c0.4,0,0.7-0.1,1-0.4c0.3-0.2,0.4-0.5,0.4-0.9c0-0.3-0.1-0.6-0.4-0.9c-0.3-0.3-0.6-0.4-1.1-0.4c-0.3,0-0.6,0.1-0.9,0.2
	c-0.3,0.1-0.5,0.3-0.6,0.4c-0.1,0.1-0.1,0.1-0.1,0.1c0,0-0.1,0-0.1,0c-0.1,0-0.1,0-0.2-0.1c0,0-0.1-0.1-0.1-0.1
	c0-0.1,0.2-0.3,0.5-0.5c0.4-0.3,0.9-0.5,1.5-0.5c0.6,0,1,0.2,1.4,0.5c0.4,0.3,0.6,0.8,0.6,1.2c0,0.3-0.1,0.6-0.3,0.9
	C82.7,287.9,82.4,288.1,82.1,288.3z M86.2,289.1c0.3-0.4,0.6-0.7,0.9-0.9s0.6-0.3,1-0.3c0.5,0,0.9,0.2,1.3,0.6s0.6,0.9,0.6,1.5
	c0,0.5-0.2,1-0.5,1.5c-0.3,0.4-0.8,0.7-1.4,0.7c-0.4,0-0.8-0.1-1.1-0.4c-0.3-0.2-0.6-0.6-0.8-1.1c-0.2-0.6-0.4-1.3-0.4-2.1
	c0-0.6,0.1-1.1,0.3-1.6c0.2-0.4,0.4-0.7,0.7-1s0.6-0.5,1-0.7c0.4-0.2,0.8-0.3,1.3-0.3c0.3,0,0.5,0.1,0.7,0.2c0.1,0,0.1,0.1,0.1,0.2
	c0,0.1,0,0.1-0.1,0.2c0,0-0.1,0.1-0.1,0.1c0,0-0.1,0-0.2-0.1c-0.1-0.1-0.3-0.1-0.5-0.1c-0.7,0-1.3,0.3-1.9,0.9
	c-0.6,0.6-0.9,1.3-0.9,2.1C86.2,288.6,86.2,288.8,86.2,289.1z M86.3,289.8c0.1,0.7,0.3,1.1,0.6,1.4c0.3,0.3,0.6,0.4,1.1,0.4
	s0.7-0.2,1-0.5c0.3-0.3,0.4-0.7,0.4-1.2c0-0.5-0.1-0.9-0.4-1.2c-0.3-0.3-0.6-0.5-1-0.5c-0.3,0-0.7,0.1-1,0.4
	C86.8,289,86.6,289.3,86.3,289.8z M93.9,290.7h0.2c0.2,0,0.4,0.1,0.5,0.2c0.1,0.1,0.2,0.3,0.2,0.5c0,0.2-0.1,0.4-0.2,0.5
	c-0.1,0.1-0.3,0.2-0.5,0.2h-0.2c-0.2,0-0.4-0.1-0.5-0.2c-0.1-0.1-0.2-0.3-0.2-0.5c0-0.2,0.1-0.4,0.2-0.5
	C93.6,290.7,93.7,290.7,93.9,290.7z M101.4,288.3c0.4,0.2,0.7,0.4,0.9,0.8c0.2,0.3,0.3,0.7,0.3,1c0,0.5-0.2,1-0.7,1.4
	c-0.4,0.4-1,0.6-1.6,0.6c-0.4,0-0.8-0.1-1.2-0.2c-0.4-0.2-0.7-0.3-0.9-0.5c-0.1-0.1-0.1-0.1-0.1-0.2c0-0.1,0-0.1,0.1-0.1
	c0,0,0.1-0.1,0.2-0.1s0.1,0,0.2,0.1c0.6,0.4,1.1,0.6,1.8,0.6c0.5,0,1-0.2,1.3-0.5c0.4-0.3,0.5-0.7,0.5-1.1c0-0.3-0.1-0.5-0.3-0.8
	s-0.4-0.5-0.8-0.6c-0.3-0.2-0.7-0.2-1-0.2c-0.1,0-0.2,0-0.2-0.1c0,0-0.1-0.1-0.1-0.2c0-0.1,0-0.1,0.1-0.2c0,0,0.1-0.1,0.2-0.1l0.4,0
	c0.4,0,0.7-0.1,1-0.4c0.3-0.2,0.4-0.5,0.4-0.9c0-0.3-0.1-0.6-0.4-0.9s-0.6-0.4-1.1-0.4c-0.3,0-0.6,0.1-0.9,0.2
	c-0.3,0.1-0.5,0.3-0.6,0.4c-0.1,0.1-0.1,0.1-0.1,0.1c0,0-0.1,0-0.1,0c-0.1,0-0.1,0-0.2-0.1c0,0-0.1-0.1-0.1-0.1
	c0-0.1,0.2-0.3,0.5-0.5c0.4-0.3,0.9-0.5,1.5-0.5c0.6,0,1,0.2,1.4,0.5c0.4,0.3,0.6,0.8,0.6,1.2c0,0.3-0.1,0.6-0.3,0.9
	C102,287.9,101.7,288.1,101.4,288.3z M107.6,286.5c0,0.4-0.1,0.7-0.4,1c-0.3,0.3-0.6,0.4-1,0.4c-0.4,0-0.7-0.1-1-0.4
	c-0.3-0.3-0.4-0.6-0.4-1c0-0.4,0.1-0.7,0.4-1c0.3-0.3,0.6-0.4,1-0.4c0.4,0,0.7,0.1,1,0.4C107.5,285.7,107.6,286.1,107.6,286.5z
	 M107.3,286.5c0-0.3-0.1-0.6-0.3-0.8c-0.2-0.2-0.5-0.3-0.7-0.3c-0.3,0-0.5,0.1-0.7,0.3c-0.2,0.2-0.3,0.5-0.3,0.8
	c0,0.3,0.1,0.6,0.3,0.8c0.2,0.2,0.5,0.3,0.7,0.3c0.3,0,0.5-0.1,0.7-0.3C107.2,287,107.3,286.8,107.3,286.5z M109.1,288l-4.2,1.4
	c-0.1,0-0.1,0-0.1,0c0,0-0.1,0-0.1,0c0,0,0-0.1,0-0.1c0,0,0-0.1,0-0.1c0,0,0.1-0.1,0.1-0.1l4.2-1.4c0,0,0.1,0,0.1,0
	c0,0,0.1,0,0.1,0.1c0,0,0.1,0.1,0.1,0.1c0,0,0,0.1,0,0.1C109.2,288,109.1,288,109.1,288z M109,290.7c0,0.4-0.1,0.7-0.4,1
	c-0.3,0.3-0.6,0.4-1,0.4c-0.4,0-0.7-0.1-1-0.4c-0.3-0.3-0.4-0.6-0.4-1c0-0.4,0.1-0.7,0.4-1c0.3-0.3,0.6-0.4,1-0.4
	c0.4,0,0.7,0.1,1,0.4C108.9,290,109,290.3,109,290.7z M108.7,290.7c0-0.3-0.1-0.6-0.3-0.8c-0.2-0.2-0.5-0.3-0.7-0.3
	s-0.5,0.1-0.7,0.3c-0.2,0.2-0.3,0.5-0.3,0.8c0,0.3,0.1,0.6,0.3,0.8c0.2,0.2,0.5,0.3,0.7,0.3s0.5-0.1,0.7-0.3
	C108.6,291.2,108.7,291,108.7,290.7z"/>
<path class="st9" d="M77.8,281.4h115.3h28.6"/>
<path class="st8" d="M223.6,281.4c0-1-0.8-1.8-1.8-1.8s-1.8,0.8-1.8,1.8c0,1,0.8,1.8,1.8,1.8S223.6,282.4,223.6,281.4"/>
<path class="st1" d="M517.9,202.6v3.8c0,0.6-0.2,1.2-0.6,1.6c-0.4,0.4-0.9,0.6-1.5,0.6c-0.4,0-0.8-0.1-1.1-0.3
	c-0.3-0.2-0.6-0.4-0.8-0.8c-0.2-0.4-0.3-0.8-0.3-1.2v-3.8h-0.4c-0.1,0-0.2,0-0.2-0.1c0,0-0.1-0.1-0.1-0.2c0-0.1,0-0.1,0.1-0.2
	c0,0,0.1-0.1,0.2-0.1h1.7c0.1,0,0.2,0,0.2,0.1c0,0,0.1,0.1,0.1,0.2c0,0.1,0,0.1-0.1,0.2c0,0-0.1,0.1-0.2,0.1H514v3.8
	c0,0.5,0.2,0.9,0.5,1.3c0.3,0.3,0.7,0.5,1.2,0.5c0.3,0,0.6-0.1,0.8-0.2c0.2-0.1,0.5-0.4,0.6-0.6c0.2-0.3,0.3-0.6,0.3-1v-3.8h-0.8
	c-0.1,0-0.2,0-0.2-0.1c0,0-0.1-0.1-0.1-0.2c0-0.1,0-0.1,0.1-0.2c0,0,0.1-0.1,0.2-0.1h1.7c0.1,0,0.2,0,0.2,0.1c0,0,0.1,0.1,0.1,0.2
	c0,0.1,0,0.1-0.1,0.2c0,0-0.1,0.1-0.2,0.1H517.9z M520.7,203.8v0.7c0.3-0.3,0.6-0.5,0.8-0.7c0.3-0.1,0.5-0.2,0.9-0.2
	c0.3,0,0.7,0.1,0.9,0.2c0.2,0.1,0.4,0.3,0.5,0.5c0.2,0.2,0.2,0.5,0.2,0.8v2.8h0.4c0.1,0,0.2,0,0.2,0.1c0,0,0.1,0.1,0.1,0.2
	c0,0.1,0,0.1-0.1,0.2c0,0-0.1,0.1-0.2,0.1h-1.2c-0.1,0-0.2,0-0.2-0.1c0,0-0.1-0.1-0.1-0.2c0-0.1,0-0.1,0.1-0.2c0,0,0.1-0.1,0.2-0.1
	h0.4v-2.8c0-0.3-0.1-0.6-0.4-0.8c-0.2-0.2-0.5-0.3-0.9-0.3c-0.3,0-0.6,0.1-0.8,0.2c-0.2,0.1-0.5,0.4-0.9,0.9v2.8h0.5
	c0.1,0,0.2,0,0.2,0.1c0,0,0.1,0.1,0.1,0.2c0,0.1,0,0.1-0.1,0.2c0,0-0.1,0.1-0.2,0.1h-1.5c-0.1,0-0.2,0-0.2-0.1c0,0-0.1-0.1-0.1-0.2
	c0-0.1,0-0.1,0.1-0.2c0,0,0.1-0.1,0.2-0.1h0.5v-3.8h-0.4c-0.1,0-0.2,0-0.2-0.1c0,0-0.1-0.1-0.1-0.2c0-0.1,0-0.1,0.1-0.2
	c0,0,0.1-0.1,0.2-0.1H520.7z M528.8,201.5v1.2h-0.7v-1.2H528.8z M528.8,203.8v4.2h1.8c0.1,0,0.2,0,0.2,0.1c0,0,0.1,0.1,0.1,0.2
	c0,0.1,0,0.1-0.1,0.2c0,0-0.1,0.1-0.2,0.1h-4c-0.1,0-0.2,0-0.2-0.1c0,0-0.1-0.1-0.1-0.2c0-0.1,0-0.1,0.1-0.2c0,0,0.1-0.1,0.2-0.1
	h1.8v-3.8h-1.3c-0.1,0-0.2,0-0.2-0.1c0,0-0.1-0.1-0.1-0.2c0-0.1,0-0.1,0.1-0.2c0,0,0.1-0.1,0.2-0.1H528.8z M534.1,203.8h2.5
	c0.1,0,0.2,0,0.2,0.1c0,0,0.1,0.1,0.1,0.2c0,0.1,0,0.1-0.1,0.2c0,0-0.1,0.1-0.2,0.1h-2.5v3c0,0.3,0.1,0.5,0.3,0.7
	c0.2,0.2,0.5,0.3,0.9,0.3c0.3,0,0.6,0,1-0.1c0.4-0.1,0.6-0.2,0.8-0.3c0.1,0,0.1-0.1,0.2-0.1c0.1,0,0.1,0,0.1,0.1
	c0,0,0.1,0.1,0.1,0.2c0,0,0,0.1-0.1,0.1c-0.1,0.1-0.4,0.2-0.8,0.4c-0.4,0.1-0.9,0.2-1.3,0.2c-0.5,0-0.9-0.1-1.3-0.4
	c-0.3-0.2-0.5-0.6-0.5-1v-3h-0.8c-0.1,0-0.2,0-0.2-0.1c0,0-0.1-0.1-0.1-0.2c0-0.1,0-0.1,0.1-0.2c0,0,0.1-0.1,0.2-0.1h0.8v-1.3
	c0-0.1,0-0.2,0.1-0.2c0,0,0.1-0.1,0.2-0.1c0.1,0,0.1,0,0.2,0.1c0,0,0.1,0.1,0.1,0.2V203.8z M543.9,206.2h-4.6
	c0.1,0.6,0.3,1.1,0.7,1.4c0.4,0.4,0.9,0.5,1.5,0.5c0.3,0,0.7-0.1,1.1-0.2c0.4-0.1,0.7-0.3,0.9-0.5c0.1,0,0.1-0.1,0.2-0.1
	s0.1,0,0.1,0.1c0,0,0.1,0.1,0.1,0.2c0,0.1,0,0.1-0.1,0.2c-0.2,0.2-0.5,0.4-0.9,0.5c-0.4,0.2-0.9,0.2-1.4,0.2c-0.8,0-1.4-0.3-1.9-0.8
	c-0.5-0.5-0.8-1.1-0.8-1.8c0-0.7,0.2-1.2,0.7-1.7c0.5-0.5,1.1-0.7,1.8-0.7c0.7,0,1.3,0.2,1.8,0.7C543.7,204.8,544,205.4,543.9,206.2
	z M543.5,205.8c-0.1-0.5-0.3-0.9-0.7-1.2c-0.4-0.3-0.8-0.5-1.4-0.5c-0.5,0-1,0.2-1.4,0.5c-0.4,0.3-0.6,0.7-0.7,1.2H543.5z
	 M550.2,201.7v6.3h0.6c0.1,0,0.2,0,0.2,0.1c0,0,0.1,0.1,0.1,0.2c0,0.1,0,0.1-0.1,0.2c0,0-0.1,0.1-0.2,0.1h-1.1v-0.9
	c-0.5,0.7-1.2,1.1-2,1.1c-0.4,0-0.8-0.1-1.2-0.3c-0.4-0.2-0.7-0.5-0.9-0.9c-0.2-0.4-0.3-0.8-0.3-1.3s0.1-0.8,0.3-1.2
	c0.2-0.4,0.5-0.7,0.9-0.9c0.4-0.2,0.8-0.3,1.2-0.3c0.8,0,1.5,0.4,2,1.1v-2.6h-0.6c-0.1,0-0.2,0-0.2-0.1c0,0-0.1-0.1-0.1-0.2
	c0-0.1,0-0.1,0.1-0.2c0,0,0.1-0.1,0.2-0.1H550.2z M549.7,206.1c0-0.6-0.2-1.1-0.6-1.5c-0.4-0.4-0.8-0.6-1.4-0.6
	c-0.5,0-1,0.2-1.4,0.6c-0.4,0.4-0.6,0.9-0.6,1.5s0.2,1.1,0.6,1.5c0.4,0.4,0.9,0.6,1.4,0.6c0.5,0,1-0.2,1.4-0.6
	C549.5,207.2,549.7,206.7,549.7,206.1z M562.4,202.6v-0.2c0-0.1,0-0.2,0.1-0.2c0,0,0.1-0.1,0.2-0.1c0.1,0,0.1,0,0.2,0.1
	c0,0,0.1,0.1,0.1,0.2v1.2c0,0.1,0,0.2-0.1,0.2c0,0-0.1,0.1-0.2,0.1c-0.1,0-0.1,0-0.2-0.1c0,0-0.1-0.1-0.1-0.2c0-0.3-0.2-0.6-0.5-0.8
	c-0.3-0.2-0.7-0.4-1.1-0.4c-0.5,0-0.9,0.1-1.2,0.4c-0.3,0.2-0.4,0.6-0.4,0.9c0,0.2,0,0.3,0.1,0.5c0.1,0.1,0.2,0.3,0.3,0.4
	c0.1,0.1,0.3,0.2,0.5,0.2s0.4,0.1,0.8,0.2c0.6,0.1,1,0.2,1.3,0.3c0.3,0.1,0.5,0.3,0.7,0.6c0.2,0.2,0.2,0.5,0.2,0.9
	c0,0.5-0.2,1-0.6,1.3c-0.4,0.4-1,0.5-1.7,0.5c-0.8,0-1.4-0.2-1.9-0.7v0.3c0,0.1,0,0.2-0.1,0.2c0,0-0.1,0.1-0.2,0.1s-0.1,0-0.2-0.1
	c0,0-0.1-0.1-0.1-0.2v-1.3c0-0.1,0-0.2,0.1-0.2c0,0,0.1-0.1,0.2-0.1s0.1,0,0.2,0.1c0,0,0.1,0.1,0.1,0.2c0,0.3,0.2,0.6,0.5,0.9
	c0.3,0.3,0.8,0.4,1.4,0.4s1-0.1,1.3-0.4c0.3-0.3,0.5-0.6,0.5-1c0-0.2-0.1-0.5-0.2-0.6c-0.1-0.2-0.3-0.3-0.6-0.4
	c-0.2-0.1-0.5-0.1-1.1-0.2c-0.7-0.1-1.3-0.3-1.6-0.6c-0.3-0.3-0.5-0.6-0.5-1.1c0-0.5,0.2-0.9,0.6-1.2c0.4-0.3,0.9-0.5,1.5-0.5
	C561.5,202,562,202.2,562.4,202.6z M566.3,203.8h2.5c0.1,0,0.2,0,0.2,0.1c0,0,0.1,0.1,0.1,0.2c0,0.1,0,0.1-0.1,0.2
	c0,0-0.1,0.1-0.2,0.1h-2.5v3c0,0.3,0.1,0.5,0.3,0.7c0.2,0.2,0.5,0.3,0.9,0.3c0.3,0,0.6,0,1-0.1c0.4-0.1,0.6-0.2,0.8-0.3
	c0.1,0,0.1-0.1,0.2-0.1c0.1,0,0.1,0,0.1,0.1c0,0,0.1,0.1,0.1,0.2c0,0,0,0.1-0.1,0.1c-0.1,0.1-0.4,0.2-0.8,0.4
	c-0.4,0.1-0.9,0.2-1.3,0.2c-0.5,0-0.9-0.1-1.3-0.4c-0.3-0.2-0.5-0.6-0.5-1v-3H565c-0.1,0-0.2,0-0.2-0.1c0,0-0.1-0.1-0.1-0.2
	c0-0.1,0-0.1,0.1-0.2c0,0,0.1-0.1,0.2-0.1h0.8v-1.3c0-0.1,0-0.2,0.1-0.2c0,0,0.1-0.1,0.2-0.1c0.1,0,0.1,0,0.2,0.1
	c0,0,0.1,0.1,0.1,0.2V203.8z M575,208.4v-0.6c-0.7,0.5-1.4,0.8-2.1,0.8c-0.5,0-1-0.1-1.3-0.4c-0.3-0.3-0.5-0.6-0.5-1
	c0-0.4,0.2-0.8,0.6-1.1c0.4-0.3,1-0.5,1.8-0.5c0.2,0,0.4,0,0.7,0c0.2,0,0.5,0.1,0.8,0.1V205c0-0.2-0.1-0.5-0.3-0.6
	c-0.2-0.2-0.6-0.3-1-0.3c-0.4,0-0.8,0.1-1.5,0.3c-0.1,0-0.2,0.1-0.2,0.1c-0.1,0-0.1,0-0.2-0.1c0,0-0.1-0.1-0.1-0.2
	c0-0.1,0-0.1,0.1-0.1c0-0.1,0.2-0.1,0.6-0.2c0.6-0.2,1-0.2,1.3-0.2c0.6,0,1,0.1,1.3,0.4c0.3,0.3,0.5,0.6,0.5,0.9v3h0.6
	c0.1,0,0.2,0,0.2,0.1c0,0,0.1,0.1,0.1,0.2c0,0.1,0,0.1-0.1,0.2c0,0-0.1,0.1-0.2,0.1H575z M575,206.2c-0.2-0.1-0.4-0.1-0.7-0.1
	s-0.5,0-0.7,0c-0.7,0-1.2,0.1-1.5,0.4c-0.3,0.2-0.4,0.5-0.4,0.8c0,0.3,0.1,0.5,0.3,0.7c0.2,0.2,0.5,0.3,0.9,0.3
	c0.4,0,0.8-0.1,1.1-0.2c0.3-0.2,0.7-0.4,1-0.7V206.2z M579.2,203.8h2.5c0.1,0,0.2,0,0.2,0.1c0,0,0.1,0.1,0.1,0.2
	c0,0.1,0,0.1-0.1,0.2c0,0-0.1,0.1-0.2,0.1h-2.5v3c0,0.3,0.1,0.5,0.3,0.7c0.2,0.2,0.5,0.3,0.9,0.3c0.3,0,0.6,0,1-0.1
	c0.4-0.1,0.6-0.2,0.8-0.3c0.1,0,0.1-0.1,0.2-0.1c0.1,0,0.1,0,0.1,0.1c0,0,0.1,0.1,0.1,0.2c0,0,0,0.1-0.1,0.1
	c-0.1,0.1-0.4,0.2-0.8,0.4c-0.4,0.1-0.9,0.2-1.3,0.2c-0.5,0-0.9-0.1-1.3-0.4c-0.3-0.2-0.5-0.6-0.5-1v-3h-0.8c-0.1,0-0.2,0-0.2-0.1
	c0,0-0.1-0.1-0.1-0.2c0-0.1,0-0.1,0.1-0.2c0,0,0.1-0.1,0.2-0.1h0.8v-1.3c0-0.1,0-0.2,0.1-0.2c0,0,0.1-0.1,0.2-0.1s0.1,0,0.2,0.1
	c0,0,0.1,0.1,0.1,0.2V203.8z M589.1,206.2h-4.6c0.1,0.6,0.3,1.1,0.7,1.4c0.4,0.4,0.9,0.5,1.5,0.5c0.3,0,0.7-0.1,1.1-0.2
	c0.4-0.1,0.7-0.3,0.9-0.5c0.1,0,0.1-0.1,0.2-0.1s0.1,0,0.1,0.1c0,0,0.1,0.1,0.1,0.2c0,0.1,0,0.1-0.1,0.2c-0.2,0.2-0.5,0.4-0.9,0.5
	c-0.4,0.2-0.9,0.2-1.4,0.2c-0.8,0-1.4-0.3-1.9-0.8c-0.5-0.5-0.8-1.1-0.8-1.8c0-0.7,0.2-1.2,0.7-1.7c0.5-0.5,1.1-0.7,1.8-0.7
	c0.7,0,1.3,0.2,1.8,0.7C588.8,204.8,589.1,205.4,589.1,206.2z M588.6,205.8c-0.1-0.5-0.3-0.9-0.7-1.2c-0.4-0.3-0.8-0.5-1.4-0.5
	s-1,0.2-1.4,0.5c-0.4,0.3-0.6,0.7-0.7,1.2H588.6z M594.6,204.1c0-0.1,0-0.2,0.1-0.2c0,0,0.1-0.1,0.2-0.1c0.1,0,0.1,0,0.2,0.1
	c0,0,0.1,0.1,0.1,0.2v0.8c0,0.1,0,0.2-0.1,0.2c0,0-0.1,0.1-0.2,0.1c-0.1,0-0.1,0-0.2-0.1c0,0-0.1-0.1-0.1-0.2c0-0.2-0.1-0.4-0.3-0.5
	c-0.3-0.2-0.7-0.3-1.2-0.3c-0.5,0-0.9,0.1-1.2,0.3c-0.2,0.2-0.3,0.3-0.3,0.5c0,0.2,0.1,0.4,0.4,0.5c0.2,0.1,0.5,0.2,1,0.2
	c0.6,0.1,1.1,0.1,1.3,0.2c0.4,0.1,0.6,0.3,0.8,0.5c0.2,0.2,0.3,0.5,0.3,0.7c0,0.4-0.2,0.7-0.6,1c-0.4,0.3-0.9,0.4-1.6,0.4
	c-0.7,0-1.3-0.2-1.8-0.5c0,0.1,0,0.2,0,0.2c0,0,0,0.1-0.1,0.1c0,0-0.1,0-0.1,0c-0.1,0-0.1,0-0.2-0.1c0,0-0.1-0.1-0.1-0.2v-0.9
	c0-0.1,0-0.2,0.1-0.2c0,0,0.1-0.1,0.2-0.1s0.1,0,0.2,0.1c0,0,0.1,0.1,0.1,0.2c0,0.2,0,0.3,0.1,0.4c0.1,0.2,0.3,0.3,0.6,0.4
	c0.3,0.1,0.6,0.2,1,0.2c0.6,0,1-0.1,1.3-0.3c0.3-0.2,0.4-0.5,0.4-0.7c0-0.3-0.1-0.5-0.4-0.7c-0.3-0.2-0.7-0.3-1.3-0.3
	c-0.6-0.1-1-0.1-1.2-0.2c-0.2-0.1-0.4-0.2-0.6-0.4c-0.1-0.2-0.2-0.4-0.2-0.6c0-0.4,0.2-0.7,0.6-0.9c0.4-0.2,0.8-0.3,1.4-0.3
	C593.7,203.6,594.2,203.8,594.6,204.1z"/>
<path class="st8" d="M568.1,222.2h-3v-0.5l2.5-4.4h0.9v4.4h0.4c0.1,0,0.2,0,0.2,0.1c0,0,0.1,0.1,0.1,0.2c0,0.1,0,0.1-0.1,0.2
	c0,0-0.1,0.1-0.2,0.1h-0.4v1.4h0.4c0.1,0,0.2,0,0.2,0.1c0,0,0.1,0.1,0.1,0.2s0,0.1-0.1,0.2c0,0-0.1,0.1-0.2,0.1h-1.7
	c-0.1,0-0.2,0-0.2-0.1c0,0-0.1-0.1-0.1-0.2s0-0.1,0.1-0.2c0,0,0.1-0.1,0.2-0.1h0.8V222.2z M568.1,221.8v-4h-0.2l-2.3,4H568.1z
	 M574.6,220.6c0.4,0.2,0.7,0.4,0.9,0.7c0.2,0.3,0.3,0.6,0.3,1c0,0.5-0.2,1-0.6,1.4c-0.4,0.4-0.9,0.6-1.5,0.6s-1.1-0.2-1.5-0.6
	c-0.4-0.4-0.6-0.9-0.6-1.4c0-0.3,0.1-0.7,0.3-1c0.2-0.3,0.5-0.6,0.9-0.7c-0.3-0.2-0.6-0.4-0.7-0.6c-0.2-0.3-0.3-0.6-0.3-1
	c0-0.5,0.2-0.9,0.6-1.3c0.4-0.4,0.8-0.6,1.4-0.6c0.5,0,1,0.2,1.4,0.6c0.4,0.4,0.6,0.8,0.6,1.3c0,0.4-0.1,0.7-0.3,1
	C575.2,220.2,575,220.4,574.6,220.6z M575.2,219c0-0.4-0.1-0.7-0.4-1c-0.3-0.3-0.6-0.4-1.1-0.4c-0.4,0-0.8,0.1-1.1,0.4
	c-0.3,0.3-0.4,0.6-0.4,1c0,0.4,0.1,0.7,0.4,0.9c0.3,0.3,0.6,0.4,1.1,0.4c0.4,0,0.8-0.1,1.1-0.4C575.1,219.7,575.2,219.4,575.2,219z
	 M575.3,222.3c0-0.4-0.2-0.7-0.5-1c-0.3-0.3-0.7-0.4-1.2-0.4s-0.8,0.1-1.2,0.4c-0.3,0.3-0.5,0.6-0.5,1c0,0.4,0.2,0.8,0.5,1.1
	c0.3,0.3,0.7,0.4,1.2,0.4c0.5,0,0.8-0.1,1.1-0.4C575.2,223.1,575.3,222.7,575.3,222.3z M580.1,222.8h0.2c0.2,0,0.4,0.1,0.5,0.2
	c0.1,0.1,0.2,0.3,0.2,0.5c0,0.2-0.1,0.4-0.2,0.5c-0.1,0.1-0.3,0.2-0.5,0.2h-0.2c-0.2,0-0.4-0.1-0.5-0.2c-0.1-0.1-0.2-0.3-0.2-0.5
	c0-0.2,0.1-0.4,0.2-0.5C579.7,222.9,579.9,222.8,580.1,222.8z M588.5,220.3c-0.2,0.4-0.5,0.7-0.8,0.9c-0.3,0.2-0.6,0.3-1,0.3
	c-0.3,0-0.6-0.1-0.9-0.3c-0.3-0.2-0.5-0.4-0.7-0.8c-0.2-0.4-0.3-0.7-0.3-1.1c0-0.6,0.2-1.1,0.5-1.5c0.3-0.5,0.8-0.7,1.4-0.7
	c0.4,0,0.8,0.1,1.1,0.4c0.3,0.2,0.6,0.6,0.8,1.1c0.2,0.6,0.4,1.3,0.4,2.2c0,0.6-0.1,1.2-0.3,1.6c-0.1,0.3-0.3,0.6-0.6,0.8
	c-0.3,0.3-0.6,0.5-0.9,0.7c-0.5,0.2-0.9,0.3-1.4,0.3c-0.3,0-0.6-0.1-0.8-0.2c-0.1-0.1-0.1-0.1-0.1-0.2c0-0.1,0-0.1,0.1-0.1
	c0,0,0.1-0.1,0.2-0.1c0,0,0.1,0,0.2,0.1c0.1,0.1,0.3,0.1,0.5,0.1c0.8,0,1.4-0.3,2-0.8c0.6-0.6,0.8-1.3,0.8-2.1
	C588.5,220.8,588.5,220.5,588.5,220.3z M588.4,219.5c-0.2-0.7-0.4-1.2-0.7-1.5c-0.3-0.3-0.6-0.4-1-0.4c-0.4,0-0.7,0.2-1,0.5
	c-0.3,0.3-0.4,0.7-0.4,1.2c0,0.5,0.1,0.9,0.4,1.2c0.3,0.3,0.6,0.5,1,0.5c0.2,0,0.4-0.1,0.6-0.2c0.2-0.1,0.4-0.3,0.6-0.5
	C588,220.2,588.2,219.9,588.4,219.5z M593.7,218.6c0,0.4-0.1,0.7-0.4,1c-0.3,0.3-0.6,0.4-1,0.4c-0.4,0-0.7-0.1-1-0.4
	c-0.3-0.3-0.4-0.6-0.4-1c0-0.4,0.1-0.7,0.4-1c0.3-0.3,0.6-0.4,1-0.4c0.4,0,0.7,0.1,1,0.4C593.6,217.9,593.7,218.2,593.7,218.6z
	 M593.4,218.6c0-0.3-0.1-0.6-0.3-0.8c-0.2-0.2-0.5-0.3-0.7-0.3c-0.3,0-0.5,0.1-0.7,0.3c-0.2,0.2-0.3,0.5-0.3,0.8
	c0,0.3,0.1,0.6,0.3,0.8c0.2,0.2,0.5,0.3,0.7,0.3c0.3,0,0.5-0.1,0.7-0.3C593.3,219.2,593.4,218.9,593.4,218.6z M595.2,220.2l-4.2,1.4
	c-0.1,0-0.1,0-0.1,0c0,0-0.1,0-0.1,0c0,0,0-0.1,0-0.1c0,0,0-0.1,0-0.1c0,0,0.1-0.1,0.1-0.1l4.2-1.4c0,0,0.1,0,0.1,0
	c0,0,0.1,0,0.1,0.1c0,0,0.1,0.1,0.1,0.1c0,0,0,0.1,0,0.1C595.3,220.1,595.3,220.2,595.2,220.2z M595.1,222.8c0,0.4-0.1,0.7-0.4,1
	c-0.3,0.3-0.6,0.4-1,0.4c-0.4,0-0.7-0.1-1-0.4c-0.3-0.3-0.4-0.6-0.4-1c0-0.4,0.1-0.7,0.4-1c0.3-0.3,0.6-0.4,1-0.4
	c0.4,0,0.7,0.1,1,0.4C595,222.1,595.1,222.4,595.1,222.8z M594.8,222.8c0-0.3-0.1-0.6-0.3-0.8c-0.2-0.2-0.5-0.3-0.7-0.3
	s-0.5,0.1-0.7,0.3c-0.2,0.2-0.3,0.5-0.3,0.8c0,0.3,0.1,0.6,0.3,0.8c0.2,0.2,0.5,0.3,0.7,0.3s0.5-0.1,0.7-0.3
	C594.7,223.4,594.8,223.1,594.8,222.8z"/>
<path class="st9" d="M596.2,213.5H480.9h-12.5"/>
<path class="st8" d="M470.2,213.5c0-1-0.8-1.8-1.8-1.8c-1,0-1.8,0.8-1.8,1.8s0.8,1.8,1.8,1.8C469.4,215.4,470.2,214.5,470.2,213.5"
	/>
<path class="st1" d="M279.2,214.7l-5.4,0l-1.1,3l1.6,0c0.2,0,0.3,0,0.4,0.1c0.1,0.1,0.1,0.2,0.1,0.3s0,0.2-0.1,0.3
	c-0.1,0.1-0.2,0.1-0.4,0.1l-3.1,0c-0.2,0-0.3,0-0.4-0.1c-0.1-0.1-0.1-0.2-0.1-0.3c0-0.1,0-0.2,0.1-0.3c0.1-0.1,0.2-0.1,0.4-0.1
	l0.6,0l3.6-9.8l-2.4,0c-0.2,0-0.3,0-0.4-0.1c-0.1-0.1-0.1-0.2-0.1-0.3c0-0.1,0-0.2,0.1-0.3c0.1-0.1,0.2-0.1,0.4-0.1l4.1,0l4,10.6
	l0.6,0c0.2,0,0.3,0,0.4,0.1c0.1,0.1,0.1,0.2,0.1,0.3s0,0.2-0.1,0.3c-0.1,0.1-0.2,0.1-0.4,0.1l-3,0c-0.2,0-0.4,0-0.4-0.1
	s-0.1-0.2-0.1-0.3s0-0.2,0.1-0.3c0.1-0.1,0.2-0.1,0.4-0.1l1.6,0L279.2,214.7z M278.9,213.8l-2.2-5.9l-0.3,0l-2.2,5.9L278.9,213.8z
	 M289.1,206.3l0,11.4l3.2,0c0.2,0,0.4,0,0.4,0.1c0.1,0.1,0.1,0.2,0.1,0.3c0,0.1,0,0.2-0.1,0.3s-0.2,0.1-0.4,0.1l-7.2,0
	c-0.2,0-0.3,0-0.4-0.1c-0.1-0.1-0.1-0.2-0.1-0.3s0-0.2,0.1-0.3c0.1-0.1,0.2-0.1,0.4-0.1l3.2,0l0-10.6l-2.4,0c-0.2,0-0.3,0-0.4-0.1
	c-0.1-0.1-0.1-0.2-0.1-0.3s0-0.2,0.1-0.3c0.1-0.1,0.2-0.1,0.4-0.1L289.1,206.3z M301.3,206.3l0,11.4l3.2,0c0.2,0,0.4,0,0.4,0.1
	c0.1,0.1,0.1,0.2,0.1,0.3c0,0.1,0,0.2-0.1,0.3c-0.1,0.1-0.2,0.1-0.4,0.1l-7.2,0c-0.2,0-0.3,0-0.4-0.1c-0.1-0.1-0.1-0.2-0.1-0.3
	s0-0.2,0.1-0.3c0.1-0.1,0.2-0.1,0.4-0.1l3.2,0l0-10.6l-2.4,0c-0.2,0-0.3,0-0.4-0.1c-0.1-0.1-0.1-0.2-0.1-0.3s0-0.2,0.1-0.3
	c0.1-0.1,0.2-0.1,0.4-0.1L301.3,206.3z M329.2,218.4l-1.1,0l-6-10.2l0,9.4l1.5,0c0.2,0,0.4,0,0.4,0.1c0.1,0.1,0.1,0.2,0.1,0.3
	c0,0.1,0,0.2-0.1,0.3c-0.1,0.1-0.2,0.1-0.4,0.1l-3,0c-0.2,0-0.4,0-0.4-0.1s-0.1-0.2-0.1-0.3s0-0.2,0.1-0.3c0.1-0.1,0.2-0.1,0.4-0.1
	l0.7,0l0-9.8l-1.1,0c-0.2,0-0.3,0-0.4-0.1c-0.1-0.1-0.1-0.2-0.1-0.3c0-0.1,0-0.2,0.1-0.3c0.1-0.1,0.2-0.1,0.4-0.1l2.1,0l6,10.2
	l0-9.4l-1.5,0c-0.2,0-0.3,0-0.4-0.1c-0.1-0.1-0.1-0.2-0.1-0.3c0-0.1,0-0.2,0.1-0.3c0.1-0.1,0.2-0.1,0.4-0.1l3,0c0.2,0,0.3,0,0.4,0.1
	c0.1,0.1,0.1,0.2,0.1,0.3c0,0.1,0,0.2-0.1,0.3c-0.1,0.1-0.2,0.1-0.4,0.1l-0.7,0L329.2,218.4z M340.2,218.4l0-1.2
	c-1.1,1-2.3,1.5-3.6,1.5c-0.8,0-1.4-0.2-1.8-0.7c-0.5-0.6-0.8-1.2-0.8-2l0-5.3l-1.1,0c-0.2,0-0.3,0-0.4-0.1
	c-0.1-0.1-0.1-0.2-0.1-0.3c0-0.1,0-0.2,0.1-0.3c0.1-0.1,0.2-0.1,0.4-0.1l1.9,0l0,6.1c0,0.5,0.2,1,0.5,1.3c0.3,0.3,0.8,0.5,1.3,0.5
	c1.3,0,2.5-0.6,3.6-1.8l0-5.3l-1.5,0c-0.2,0-0.3,0-0.4-0.1s-0.1-0.2-0.1-0.3c0-0.1,0-0.2,0.1-0.3c0.1-0.1,0.2-0.1,0.4-0.1l2.3,0
	l0,7.6l0.7,0c0.2,0,0.3,0,0.4,0.1c0.1,0.1,0.1,0.2,0.1,0.3s0,0.2-0.1,0.3c-0.1,0.1-0.2,0.1-0.4,0.1L340.2,218.4z M352.9,210.9l0-0.3
	c0-0.2,0-0.4,0.1-0.4c0.1-0.1,0.2-0.1,0.3-0.1c0.1,0,0.2,0,0.3,0.1s0.1,0.2,0.1,0.4l0,1.9c0,0.2-0.1,0.3-0.1,0.4
	c-0.1,0.1-0.2,0.1-0.3,0.1c-0.1,0-0.2,0-0.3-0.1c-0.1-0.1-0.1-0.2-0.1-0.4c0-0.5-0.4-0.9-0.9-1.3c-0.6-0.4-1.3-0.6-2.3-0.6
	c-1.2,0-2.1,0.4-2.8,1.1c-0.6,0.7-1,1.6-1,2.6c0,1.1,0.3,1.9,1,2.6c0.7,0.7,1.6,1,2.7,1c0.6,0,1.3-0.1,2-0.3
	c0.7-0.2,1.3-0.6,1.8-1.1c0.1-0.1,0.3-0.2,0.4-0.2s0.2,0,0.3,0.1c0.1,0.1,0.1,0.2,0.1,0.3c0,0.3-0.3,0.6-1,1.1
	c-1,0.7-2.2,1.1-3.5,1.1c-1.3,0-2.4-0.4-3.3-1.3c-0.8-0.8-1.3-1.9-1.3-3.2c0-1.3,0.4-2.4,1.3-3.3c0.9-0.9,2-1.3,3.3-1.3
	C351,209.7,352.1,210.1,352.9,210.9z M362.1,206.2l0,11.4l3.2,0c0.2,0,0.4,0,0.4,0.1c0.1,0.1,0.1,0.2,0.1,0.3s0,0.2-0.1,0.3
	c-0.1,0.1-0.2,0.1-0.4,0.1l-7.2,0c-0.2,0-0.3,0-0.4-0.1c-0.1-0.1-0.1-0.2-0.1-0.3c0-0.1,0-0.2,0.1-0.3c0.1-0.1,0.2-0.1,0.4-0.1
	l3.2,0l0-10.6l-2.4,0c-0.2,0-0.3,0-0.4-0.1c-0.1-0.1-0.1-0.2-0.1-0.3c0-0.1,0-0.2,0.1-0.3c0.1-0.1,0.2-0.1,0.4-0.1L362.1,206.2z
	 M378.3,214.4l-8.3,0c0.1,1,0.6,1.9,1.3,2.5c0.7,0.6,1.7,1,2.8,1c0.6,0,1.3-0.1,1.9-0.3c0.7-0.2,1.2-0.5,1.6-0.8
	c0.1-0.1,0.2-0.2,0.3-0.2c0.1,0,0.2,0,0.3,0.1c0.1,0.1,0.1,0.2,0.1,0.3c0,0.1-0.1,0.2-0.2,0.3c-0.3,0.3-0.9,0.6-1.7,0.9
	c-0.8,0.3-1.6,0.4-2.4,0.4c-1.4,0-2.6-0.5-3.5-1.4c-0.9-0.9-1.4-2-1.4-3.3c0-1.2,0.4-2.2,1.3-3c0.9-0.9,2-1.3,3.3-1.3
	c1.3,0,2.4,0.4,3.3,1.3C377.9,211.9,378.3,213,378.3,214.4z M377.5,213.6c-0.2-0.9-0.6-1.6-1.3-2.2c-0.7-0.6-1.5-0.8-2.5-0.8
	c-1,0-1.8,0.3-2.5,0.8c-0.7,0.6-1.1,1.3-1.3,2.2L377.5,213.6z M388.4,218.4l0-1.2c-1.2,1-2.5,1.5-3.8,1.5c-1,0-1.7-0.2-2.3-0.7
	c-0.6-0.5-0.8-1.1-0.8-1.8c0-0.8,0.4-1.5,1.1-2.1c0.7-0.6,1.8-0.9,3.2-0.9c0.4,0,0.8,0,1.2,0.1s0.9,0.1,1.4,0.2l0-1.3
	c0-0.4-0.2-0.8-0.6-1.2c-0.4-0.3-1-0.5-1.9-0.5c-0.6,0-1.5,0.2-2.7,0.6c-0.2,0.1-0.3,0.1-0.4,0.1c-0.1,0-0.2,0-0.3-0.1
	c-0.1-0.1-0.1-0.2-0.1-0.3s0-0.2,0.1-0.3c0.1-0.1,0.5-0.2,1.1-0.4c1-0.3,1.8-0.4,2.3-0.4c1,0,1.8,0.3,2.4,0.8
	c0.6,0.5,0.9,1.1,0.9,1.7l0,5.4l1.1,0c0.2,0,0.4,0,0.4,0.1c0.1,0.1,0.1,0.2,0.1,0.3c0,0.1,0,0.2-0.1,0.3c-0.1,0.1-0.2,0.1-0.4,0.1
	L388.4,218.4z M388.4,214.4c-0.4-0.1-0.8-0.2-1.2-0.2c-0.4-0.1-0.9-0.1-1.3-0.1c-1.2,0-2.1,0.3-2.8,0.8c-0.5,0.4-0.8,0.8-0.8,1.4
	c0,0.5,0.2,0.9,0.6,1.2c0.4,0.3,1,0.5,1.7,0.5c0.7,0,1.4-0.1,2-0.4c0.6-0.3,1.2-0.7,1.9-1.3L388.4,214.4z M397.2,210l0,2.1
	c1.1-1,1.9-1.6,2.4-1.9c0.5-0.3,1-0.4,1.5-0.4c0.5,0,0.9,0.2,1.3,0.5c0.4,0.3,0.6,0.6,0.6,0.7c0,0.1,0,0.2-0.1,0.3
	c-0.1,0.1-0.2,0.1-0.3,0.1c-0.1,0-0.1,0-0.2,0s-0.1-0.1-0.2-0.2c-0.2-0.2-0.4-0.4-0.6-0.5c-0.2-0.1-0.3-0.1-0.5-0.1
	c-0.4,0-0.8,0.1-1.3,0.4c-0.5,0.3-1.4,1-2.6,2.1l0,4.5l3.6,0c0.2,0,0.4,0,0.4,0.1c0.1,0.1,0.1,0.2,0.1,0.3s0,0.2-0.1,0.3
	c-0.1,0.1-0.2,0.1-0.4,0.1l-6.4,0c-0.2,0-0.3,0-0.4-0.1c-0.1-0.1-0.1-0.2-0.1-0.3c0-0.1,0-0.2,0.1-0.3c0.1-0.1,0.2-0.1,0.4-0.1l2,0
	l0-6.8l-1.5,0c-0.2,0-0.3,0-0.4-0.1c-0.1-0.1-0.1-0.2-0.1-0.3c0-0.1,0-0.2,0.1-0.3c0.1-0.1,0.2-0.1,0.4-0.1L397.2,210z M295.5,235.5
	l-5.4,0l-1.1,3l1.6,0c0.2,0,0.3,0,0.4,0.1c0.1,0.1,0.1,0.2,0.1,0.3s0,0.2-0.1,0.3c-0.1,0.1-0.2,0.1-0.4,0.1l-3.1,0
	c-0.2,0-0.3,0-0.4-0.1s-0.1-0.2-0.1-0.3c0-0.1,0-0.2,0.1-0.3c0.1-0.1,0.2-0.1,0.4-0.1l0.6,0l3.6-9.8l-2.4,0c-0.2,0-0.3,0-0.4-0.1
	c-0.1-0.1-0.1-0.2-0.1-0.3c0-0.1,0-0.2,0.1-0.3c0.1-0.1,0.2-0.1,0.4-0.1l4.1,0l4,10.6l0.6,0c0.2,0,0.3,0,0.4,0.1
	c0.1,0.1,0.1,0.2,0.1,0.3s0,0.2-0.1,0.3c-0.1,0.1-0.2,0.1-0.4,0.1l-3,0c-0.2,0-0.4,0-0.4-0.1c-0.1-0.1-0.1-0.2-0.1-0.3
	s0-0.2,0.1-0.3c0.1-0.1,0.2-0.1,0.4-0.1l1.6,0L295.5,235.5z M295.2,234.7l-2.2-5.9l-0.3,0l-2.2,5.9L295.2,234.7z M308.4,231.7l0-0.3
	c0-0.2,0-0.4,0.1-0.4c0.1-0.1,0.2-0.1,0.3-0.1c0.1,0,0.2,0,0.3,0.1c0.1,0.1,0.1,0.2,0.1,0.4l0,1.9c0,0.2-0.1,0.3-0.1,0.4
	c-0.1,0.1-0.2,0.1-0.3,0.1c-0.1,0-0.2,0-0.3-0.1c-0.1-0.1-0.1-0.2-0.1-0.4c0-0.5-0.4-0.9-0.9-1.3c-0.6-0.4-1.3-0.6-2.3-0.6
	c-1.2,0-2.1,0.4-2.8,1.1c-0.6,0.7-1,1.6-1,2.6c0,1.1,0.3,1.9,1,2.6c0.7,0.7,1.6,1,2.7,1c0.6,0,1.3-0.1,2-0.3
	c0.7-0.2,1.3-0.6,1.8-1.1c0.1-0.1,0.3-0.2,0.4-0.2c0.1,0,0.2,0,0.3,0.1c0.1,0.1,0.1,0.2,0.1,0.3c0,0.3-0.3,0.6-1,1.1
	c-1,0.7-2.2,1.1-3.5,1.1c-1.3,0-2.4-0.4-3.3-1.3c-0.8-0.8-1.3-1.9-1.3-3.2c0-1.3,0.4-2.4,1.3-3.3c0.9-0.9,2-1.3,3.3-1.3
	C306.5,230.6,307.6,231,308.4,231.7z M315.5,230.9l4.4,0c0.2,0,0.3,0,0.4,0.1c0.1,0.1,0.1,0.2,0.1,0.3c0,0.1,0,0.2-0.1,0.3
	c-0.1,0.1-0.2,0.1-0.4,0.1l-4.4,0l0,5.4c0,0.5,0.2,0.9,0.6,1.2c0.4,0.3,0.9,0.5,1.7,0.5c0.6,0,1.1-0.1,1.8-0.2
	c0.6-0.2,1.1-0.3,1.5-0.6c0.1-0.1,0.2-0.1,0.3-0.1c0.1,0,0.2,0,0.3,0.1c0.1,0.1,0.1,0.2,0.1,0.3c0,0.1,0,0.2-0.1,0.3
	c-0.2,0.2-0.7,0.4-1.5,0.7c-0.8,0.3-1.6,0.4-2.3,0.4c-0.9,0-1.7-0.2-2.3-0.7s-0.8-1.1-0.8-1.8l0-5.4l-1.5,0c-0.2,0-0.3,0-0.4-0.1
	c-0.1-0.1-0.1-0.2-0.1-0.3c0-0.1,0-0.2,0.1-0.3c0.1-0.1,0.2-0.1,0.4-0.1l1.5,0l0-2.4c0-0.2,0-0.3,0.1-0.4c0.1-0.1,0.2-0.1,0.3-0.1
	c0.1,0,0.2,0,0.3,0.1s0.1,0.2,0.1,0.4L315.5,230.9z M329.7,231.3l0,2.1l-1.2,0l0-2.1L329.7,231.3z M329.8,230.9l0,7.6l3.2,0
	c0.2,0,0.4,0,0.4,0.1c0.1,0.1,0.1,0.2,0.1,0.3c0,0.1,0,0.2-0.1,0.3c-0.1,0.1-0.2,0.1-0.4,0.1l-7.2,0c-0.2,0-0.3,0-0.4-0.1
	c-0.1-0.1-0.1-0.2-0.1-0.3s0-0.2,0.1-0.3c0.1-0.1,0.2-0.1,0.4-0.1l3.2,0l0-6.8l-2.4,0c-0.2,0-0.3,0-0.4-0.1
	c-0.1-0.1-0.1-0.2-0.1-0.3c0-0.1,0-0.2,0.1-0.3c0.1-0.1,0.2-0.1,0.4-0.1L329.8,230.9z M342.2,239.3l-1.4,0l-3.4-7.6l-0.8,0
	c-0.2,0-0.3,0-0.4-0.1c-0.1-0.1-0.1-0.2-0.1-0.3c0-0.1,0-0.2,0.1-0.3c0.1-0.1,0.2-0.1,0.4-0.1l3.1,0c0.2,0,0.3,0,0.4,0.1
	c0.1,0.1,0.1,0.2,0.1,0.3c0,0.1,0,0.2-0.1,0.3c-0.1,0.1-0.2,0.1-0.4,0.1l-1.3,0l3,6.8l0.4,0l2.9-6.8l-1.4,0c-0.2,0-0.3,0-0.4-0.1
	c-0.1-0.1-0.1-0.2-0.1-0.3c0-0.1,0-0.2,0.1-0.3c0.1-0.1,0.2-0.1,0.4-0.1l3.1,0c0.2,0,0.3,0,0.4,0.1c0.1,0.1,0.1,0.2,0.1,0.3
	c0,0.1,0,0.2-0.1,0.3c-0.1,0.1-0.2,0.1-0.4,0.1l-0.8,0L342.2,239.3z M354.1,231.3l0,2.1l-1.2,0l0-2.1L354.1,231.3z M354.1,230.9
	l0,7.6l3.2,0c0.2,0,0.4,0,0.4,0.1c0.1,0.1,0.1,0.2,0.1,0.3s0,0.2-0.1,0.3s-0.2,0.1-0.4,0.1l-7.2,0c-0.2,0-0.3,0-0.4-0.1
	c-0.1-0.1-0.1-0.2-0.1-0.3c0-0.1,0-0.2,0.1-0.3c0.1-0.1,0.2-0.1,0.4-0.1l3.2,0l0-6.8l-2.4,0c-0.2,0-0.3,0-0.4-0.1
	c-0.1-0.1-0.1-0.2-0.1-0.3c0-0.1,0-0.2,0.1-0.3c0.1-0.1,0.2-0.1,0.4-0.1L354.1,230.9z M364.2,230.9l4.4,0c0.2,0,0.3,0,0.4,0.1
	c0.1,0.1,0.1,0.2,0.1,0.3c0,0.1,0,0.2-0.1,0.3c-0.1,0.1-0.2,0.1-0.4,0.1l-4.4,0l0,5.4c0,0.5,0.2,0.9,0.6,1.2
	c0.4,0.3,0.9,0.5,1.7,0.5c0.6,0,1.1-0.1,1.8-0.2c0.6-0.2,1.1-0.3,1.5-0.6c0.1-0.1,0.2-0.1,0.3-0.1c0.1,0,0.2,0,0.3,0.1
	c0.1,0.1,0.1,0.2,0.1,0.3c0,0.1,0,0.2-0.1,0.3c-0.2,0.2-0.7,0.4-1.5,0.7c-0.8,0.3-1.6,0.4-2.3,0.4c-0.9,0-1.7-0.2-2.3-0.7
	s-0.8-1.1-0.8-1.8l0-5.4l-1.5,0c-0.2,0-0.3,0-0.4-0.1c-0.1-0.1-0.1-0.2-0.1-0.3c0-0.1,0-0.2,0.1-0.3c0.1-0.1,0.2-0.1,0.4-0.1l1.5,0
	l0-2.4c0-0.2,0-0.3,0.1-0.4c0.1-0.1,0.2-0.1,0.3-0.1c0.1,0,0.2,0,0.3,0.1s0.1,0.2,0.1,0.4L364.2,230.9z M378.1,239.3l-3.8-7.6
	l-0.2,0c-0.2,0-0.3,0-0.4-0.1c-0.1-0.1-0.1-0.2-0.1-0.3c0-0.1,0-0.2,0.1-0.2c0-0.1,0.1-0.1,0.2-0.1c0.1,0,0.2-0.1,0.3-0.1l2.2,0
	c0.2,0,0.3,0,0.4,0.1c0.1,0.1,0.1,0.2,0.1,0.3c0,0.1,0,0.2-0.1,0.3s-0.2,0.1-0.4,0.1l-1.1,0l3.3,6.7l3.3-6.7l-1.1,0
	c-0.2,0-0.3,0-0.4-0.1c-0.1-0.1-0.1-0.2-0.1-0.3c0-0.1,0-0.2,0.1-0.3c0.1-0.1,0.2-0.1,0.4-0.1l2.2,0c0.2,0,0.4,0,0.4,0.1
	c0.1,0.1,0.1,0.2,0.1,0.3c0,0.1,0,0.2-0.1,0.2c0,0.1-0.1,0.1-0.2,0.1c-0.1,0-0.3,0-0.6,0l-5.2,10.5l1.3,0c0.2,0,0.3,0,0.4,0.1
	c0.1,0.1,0.1,0.2,0.1,0.3c0,0.1,0,0.2-0.1,0.3c-0.1,0.1-0.2,0.1-0.4,0.1l-4.7,0c-0.2,0-0.3,0-0.4-0.1c-0.1-0.1-0.1-0.2-0.1-0.3
	c0-0.1,0-0.2,0.1-0.3c0.1-0.1,0.2-0.1,0.4-0.1l2.6,0L378.1,239.3z"/>
<line class="st10" x1="269.5" y1="222.4" x2="403.1" y2="222.4"/>
<line class="st10" x1="285.6" y1="246.1" x2="381.5" y2="246.1"/>
</svg>
