<?xml version="1.0" encoding="utf-8"?>
<!-- Generator: Adobe Illustrator 23.0.6, SVG Export Plug-In . SVG Version: 6.00 Build 0)  -->
<svg version="1.1" id="Layer_1" xmlns="http://www.w3.org/2000/svg" xmlns:xlink="http://www.w3.org/1999/xlink" x="0px" y="0px"
	 width="647.8px" height="377.1px" viewBox="0 0 647.8 377.1" style="enable-background:new 0 0 647.8 377.1;" xml:space="preserve"
	>
<style type="text/css">
	.st0{fill:#FFF1C4;}
	.st1{fill:none;stroke:#0B0C0E;stroke-width:0.8781;stroke-miterlimit:10;}
	.st2{fill:none;stroke:#FFFFFF;stroke-width:0.8781;stroke-miterlimit:10;}
	.st3{clip-path:url(#SVGID_2_);fill:#0014FF;}
	.st4{clip-path:url(#SVGID_4_);fill:#FF0000;}
	.st5{clip-path:url(#SVGID_6_);fill:none;stroke:#0014FF;stroke-width:0.8781;stroke-miterlimit:10;}
	.st6{clip-path:url(#SVGID_8_);fill:none;stroke:#FF0000;stroke-width:0.8781;stroke-miterlimit:10;}
	.st7{clip-path:url(#SVGID_10_);fill-opacity:0;}
	.st8{clip-path:url(#SVGID_12_);fill-opacity:0;}
	.st9{clip-path:url(#SVGID_14_);fill-opacity:0;}
	.st10{clip-path:url(#SVGID_16_);fill-opacity:0;}
	.st11{clip-path:url(#SVGID_18_);fill-opacity:0;}
	.st12{clip-path:url(#SVGID_20_);fill-opacity:0;}
	.st13{clip-path:url(#SVGID_22_);fill-opacity:0;}
	.st14{clip-path:url(#SVGID_24_);fill-opacity:0;}
	.st15{clip-path:url(#SVGID_26_);fill-opacity:0;}
	.st16{clip-path:url(#SVGID_28_);fill-opacity:0;}
	.st17{clip-path:url(#SVGID_30_);fill-opacity:0;}
	.st18{clip-path:url(#SVGID_32_);fill-opacity:0;}
	.st19{clip-path:url(#SVGID_34_);fill-opacity:0;}
	.st20{clip-path:url(#SVGID_36_);fill-opacity:0;}
	.st21{clip-path:url(#SVGID_38_);fill-opacity:0;}
	.st22{clip-path:url(#SVGID_40_);fill-opacity:0;}
	.st23{clip-path:url(#SVGID_42_);fill-opacity:0;}
	.st24{clip-path:url(#SVGID_44_);fill-opacity:0;}
	.st25{clip-path:url(#SVGID_46_);fill-opacity:0;}
	.st26{clip-path:url(#SVGID_48_);fill-opacity:0;}
	.st27{clip-path:url(#SVGID_50_);fill-opacity:0;}
	.st28{clip-path:url(#SVGID_52_);fill-opacity:0;}
	.st29{clip-path:url(#SVGID_54_);fill-opacity:0;}
	.st30{clip-path:url(#SVGID_56_);fill-opacity:0;}
	.st31{clip-path:url(#SVGID_58_);fill-opacity:0;}
	.st32{clip-path:url(#SVGID_60_);fill-opacity:0;}
	.st33{clip-path:url(#SVGID_62_);fill-opacity:0;}
	.st34{clip-path:url(#SVGID_64_);fill-opacity:0;}
	.st35{clip-path:url(#SVGID_66_);fill-opacity:0;}
	.st36{clip-path:url(#SVGID_68_);fill-opacity:0;}
	.st37{clip-path:url(#SVGID_70_);fill-opacity:0;}
	.st38{clip-path:url(#SVGID_72_);fill-opacity:0;}
	.st39{clip-path:url(#SVGID_74_);fill-opacity:0;}
	.st40{clip-path:url(#SVGID_76_);fill-opacity:0;}
	.st41{clip-path:url(#SVGID_78_);fill-opacity:0;}
	.st42{clip-path:url(#SVGID_80_);fill-opacity:0;}
	.st43{clip-path:url(#SVGID_82_);fill-opacity:0;}
	.st44{clip-path:url(#SVGID_84_);fill-opacity:0;}
	.st45{fill:none;}
	.st46{opacity:0.7;}
	.st47{font-family:'BioSans-SemiBold';}
	.st48{font-size:8px;}
	.st49{fill:#FF0000;}
	.st50{font-family:'Knockout-HTF73-FullHeviweight';}
	.st51{font-size:10px;}
	.st52{fill:#0014FF;}
	.st53{font-family:'BioSans-Regular';}
	.st54{font-size:7.5883px;}
</style>
<path class="st0" d="M0,0h647.8v377.1H0V0z"/>
<g>
	<path class="st1" d="M98.7,314H572"/>
	<path class="st2" d="M98.7,279.7H572"/>
	<path class="st2" d="M98.7,246.4H572"/>
	<path class="st2" d="M98.7,212.1H572"/>
	<path class="st2" d="M98.7,178.7H572"/>
	<path class="st2" d="M98.7,144.5H572"/>
	<path class="st2" d="M98.7,111.1H572"/>
	<g>
		<defs>
			<rect id="SVGID_1_" x="98.7" y="110.9" width="473.2" height="203"/>
		</defs>
		<clipPath id="SVGID_2_">
			<use xlink:href="#SVGID_1_"  style="overflow:visible;"/>
		</clipPath>
		<path class="st3" d="M98.7,312.3h24.1c0.5,0,0.8-0.4,0.8-0.8l0,0c0-0.5,0.4-0.8,0.8-0.8h22.4c0.9,0,1.7,0.8,1.7,1.7l0,0
			c0,0.9,0.8,1.7,1.7,1.7h21.5c1,0,1.8-0.8,1.8-1.8v-1.6c0-1,0.8-1.8,1.8-1.8h21.4c1,0,1.8,0.8,1.8,1.8v1.6c0,1,0.8,1.8,1.8,1.8
			h46.3c1,0,1.8-0.8,1.8-1.8v-21.9c0-1,0.8-1.8,1.8-1.8h21.4c1,0,1.8,0.8,1.8,1.8v4.9c0,1,0.8,1.8,1.8,1.8h22.3
			c0.5,0,0.8-0.4,0.8-0.8l0,0c0-0.5,0.4-0.8,0.8-0.8h22.3c1,0,1.8,0.8,1.8,1.8v4.9c0,1,0.8,1.8,1.8,1.8H346c1,0,1.8-0.8,1.8-1.8V287
			c0-1,0.8-1.8,1.8-1.8h22.3c0.5,0,0.8-0.4,0.8-0.8l0,0c0-0.5,0.4-0.8,0.8-0.8h22.3c1,0,1.8-0.8,1.8-1.8v-11.7c0-1,0.8-1.8,1.8-1.8
			h21.4c1,0,1.8-0.8,1.8-1.8v-55.7c0-1,0.8-1.8,1.8-1.8h21.4c1,0,1.8,0.8,1.8,1.8v101.4c0,1,0.8,1.8,1.8,1.8h71.2
			c1,0,1.8-0.8,1.8-1.8v-62.5c0-1,0.8-1.8,1.8-1.8h21.4c1,0,1.8,0.8,1.8,1.8v55.7c0,1,0.8,1.8,1.8,1.8h23.1v6.8H98.7V312.3z"/>
	</g>
	<g>
		<defs>
			<rect id="SVGID_3_" x="98.7" y="110.9" width="473.2" height="203"/>
		</defs>
		<clipPath id="SVGID_4_">
			<use xlink:href="#SVGID_3_"  style="overflow:visible;"/>
		</clipPath>
		<path class="st4" d="M98.7,312.3h24.1c0.5,0,0.8-0.4,0.8-0.8l0,0c0-0.5,0.4-0.8,0.8-0.8h22.4c0.9,0,1.7,0.8,1.7,1.7l0,0
			c0,0.9,0.8,1.7,1.7,1.7h21.5c1,0,1.8-0.8,1.8-1.8v-1.6c0-1,0.8-1.8,1.8-1.8h21.5c0.9,0,1.7,0.8,1.7,1.7l0,0c0,0.9,0.8,1.7,1.7,1.7
			h22.4c0.5,0,0.8,0.4,0.8,0.8l0,0c0,0.5,0.4,0.8,0.8,0.8h22.3c1,0,1.8-0.8,1.8-1.8V287c0-1,0.8-1.8,1.8-1.8h21.4
			c1,0,1.8,0.8,1.8,1.8v8.3c0,1,0.8,1.8,1.8,1.8h21.4c1,0,1.8-0.8,1.8-1.8v-6.6c0-1,0.8-1.8,1.8-1.8H346c1,0,1.8-0.8,1.8-1.8v-8.3
			c0-1,0.8-1.8,1.8-1.8h21.4c1,0,1.8-0.8,1.8-1.8v-3.3c0-1,0.8-1.8,1.8-1.8h21.4c1,0,1.8-0.8,1.8-1.8V243c0-1,0.8-1.8,1.8-1.8h21.4
			c1,0,1.8-0.8,1.8-1.8v-86.2c0-1,0.8-1.8,1.8-1.8h21.4c1,0,1.8,0.8,1.8,1.8v158.9c0,1,0.8,1.8,1.8,1.8h46.3c1,0,1.8-0.8,1.8-1.8
			v-94.6c0-1,0.8-1.8,1.8-1.8h21.4c1,0,1.8-0.8,1.8-1.8v-96.3c0-1,0.8-1.8,1.8-1.8h21.4c1,0,1.8,0.8,1.8,1.8v187.7
			c0,1,0.8,1.8,1.8,1.8h23.1l0,0h-23.1c-1,0-1.8-0.8-1.8-1.8v-55.7c0-1-0.8-1.8-1.8-1.8h-21.4c-1,0-1.8,0.8-1.8,1.8v62.5
			c0,1-0.8,1.8-1.8,1.8h-71.2c-1,0-1.8-0.8-1.8-1.8V210.8c0-1-0.8-1.8-1.8-1.8h-21.4c-1,0-1.8,0.8-1.8,1.8v55.7c0,1-0.8,1.8-1.8,1.8
			h-21.4c-1,0-1.8,0.8-1.8,1.8v11.7c0,1-0.8,1.8-1.8,1.8h-22.3c-0.5,0-0.8,0.4-0.8,0.8l0,0c0,0.5-0.4,0.8-0.8,0.8h-22.3
			c-1,0-1.8,0.8-1.8,1.8v15.1c0,1-0.8,1.8-1.8,1.8h-21.4c-1,0-1.8-0.8-1.8-1.8v-4.9c0-1-0.8-1.8-1.8-1.8h-22.3
			c-0.5,0-0.8,0.4-0.8,0.8l0,0c0,0.5-0.4,0.8-0.8,0.8h-22.3c-1,0-1.8-0.8-1.8-1.8v-4.9c0-1-0.8-1.8-1.8-1.8h-21.4
			c-1,0-1.8,0.8-1.8,1.8v21.9c0,1-0.8,1.8-1.8,1.8h-46.3c-1,0-1.8-0.8-1.8-1.8v-1.6c0-1-0.8-1.8-1.8-1.8h-21.4c-1,0-1.8,0.8-1.8,1.8
			v1.6c0,1-0.8,1.8-1.8,1.8h-21.5c-0.9,0-1.7-0.8-1.7-1.7l0,0c0-0.9-0.8-1.7-1.7-1.7h-22.4c-0.5,0-0.8,0.4-0.8,0.8l0,0
			c0,0.5-0.4,0.8-0.8,0.8H98.7z"/>
	</g>
	<g>
		<defs>
			<rect id="SVGID_5_" x="98.7" y="110.9" width="473.2" height="203"/>
		</defs>
		<clipPath id="SVGID_6_">
			<use xlink:href="#SVGID_5_"  style="overflow:visible;"/>
		</clipPath>
		<path class="st5" d="M98.7,312.3h24.1c0.5,0,0.8-0.4,0.8-0.8l0,0c0-0.5,0.4-0.8,0.8-0.8h22.4c0.9,0,1.7,0.8,1.7,1.7l0,0
			c0,0.9,0.8,1.7,1.7,1.7h21.5c1,0,1.8-0.8,1.8-1.8v-1.6c0-1,0.8-1.8,1.8-1.8h21.4c1,0,1.8,0.8,1.8,1.8v1.6c0,1,0.8,1.8,1.8,1.8
			h46.3c1,0,1.8-0.8,1.8-1.8v-21.9c0-1,0.8-1.8,1.8-1.8h21.4c1,0,1.8,0.8,1.8,1.8v4.9c0,1,0.8,1.8,1.8,1.8h22.3
			c0.5,0,0.8-0.4,0.8-0.8l0,0c0-0.5,0.4-0.8,0.8-0.8h22.3c1,0,1.8,0.8,1.8,1.8v4.9c0,1,0.8,1.8,1.8,1.8H346c1,0,1.8-0.8,1.8-1.8V287
			c0-1,0.8-1.8,1.8-1.8h22.3c0.5,0,0.8-0.4,0.8-0.8l0,0c0-0.5,0.4-0.8,0.8-0.8h22.3c1,0,1.8-0.8,1.8-1.8v-11.7c0-1,0.8-1.8,1.8-1.8
			h21.4c1,0,1.8-0.8,1.8-1.8v-55.7c0-1,0.8-1.8,1.8-1.8h21.4c1,0,1.8,0.8,1.8,1.8v101.4c0,1,0.8,1.8,1.8,1.8h71.2
			c1,0,1.8-0.8,1.8-1.8v-62.5c0-1,0.8-1.8,1.8-1.8h21.4c1,0,1.8,0.8,1.8,1.8v55.7c0,1,0.8,1.8,1.8,1.8h23.1"/>
	</g>
	<g>
		<defs>
			<rect id="SVGID_7_" x="98.7" y="110.9" width="473.2" height="203"/>
		</defs>
		<clipPath id="SVGID_8_">
			<use xlink:href="#SVGID_7_"  style="overflow:visible;"/>
		</clipPath>
		<path class="st6" d="M98.7,312.3h24.1c0.5,0,0.8-0.4,0.8-0.8l0,0c0-0.5,0.4-0.8,0.8-0.8h22.4c0.9,0,1.7,0.8,1.7,1.7l0,0
			c0,0.9,0.8,1.7,1.7,1.7h21.5c1,0,1.8-0.8,1.8-1.8v-1.6c0-1,0.8-1.8,1.8-1.8h21.5c0.9,0,1.7,0.8,1.7,1.7l0,0c0,0.9,0.8,1.7,1.7,1.7
			h22.4c0.5,0,0.8,0.4,0.8,0.8l0,0c0,0.5,0.4,0.8,0.8,0.8h22.3c1,0,1.8-0.8,1.8-1.8V287c0-1,0.8-1.8,1.8-1.8h21.4
			c1,0,1.8,0.8,1.8,1.8v8.3c0,1,0.8,1.8,1.8,1.8h21.4c1,0,1.8-0.8,1.8-1.8v-6.6c0-1,0.8-1.8,1.8-1.8H346c1,0,1.8-0.8,1.8-1.8v-8.3
			c0-1,0.8-1.8,1.8-1.8h21.4c1,0,1.8-0.8,1.8-1.8v-3.3c0-1,0.8-1.8,1.8-1.8h21.4c1,0,1.8-0.8,1.8-1.8V243c0-1,0.8-1.8,1.8-1.8h21.4
			c1,0,1.8-0.8,1.8-1.8v-86.2c0-1,0.8-1.8,1.8-1.8h21.4c1,0,1.8,0.8,1.8,1.8v158.9c0,1,0.8,1.8,1.8,1.8h46.3c1,0,1.8-0.8,1.8-1.8
			v-94.6c0-1,0.8-1.8,1.8-1.8h21.4c1,0,1.8-0.8,1.8-1.8v-96.3c0-1,0.8-1.8,1.8-1.8h21.4c1,0,1.8,0.8,1.8,1.8v187.7
			c0,1,0.8,1.8,1.8,1.8h23.1"/>
	</g>
	<g>
		<defs>
			<rect id="SVGID_9_" x="98.7" y="110.9" width="473.2" height="203"/>
		</defs>
		<clipPath id="SVGID_10_">
			<use xlink:href="#SVGID_9_"  style="overflow:visible;"/>
		</clipPath>
		<path class="st7" d="M113.8,312.3c0,1.5-1.2,2.6-2.6,2.6s-2.6-1.2-2.6-2.6c0-1.5,1.2-2.6,2.6-2.6S113.8,310.8,113.8,312.3z"/>
	</g>
	<g>
		<defs>
			<rect id="SVGID_11_" x="98.7" y="110.9" width="473.2" height="203"/>
		</defs>
		<clipPath id="SVGID_12_">
			<use xlink:href="#SVGID_11_"  style="overflow:visible;"/>
		</clipPath>
		<path class="st8" d="M138.7,310.6c0,1.5-1.2,2.6-2.6,2.6c-1.5,0-2.6-1.2-2.6-2.6s1.2-2.6,2.6-2.6
			C137.6,308,138.7,309.2,138.7,310.6z"/>
	</g>
	<g>
		<defs>
			<rect id="SVGID_13_" x="98.7" y="110.9" width="473.2" height="203"/>
		</defs>
		<clipPath id="SVGID_14_">
			<use xlink:href="#SVGID_13_"  style="overflow:visible;"/>
		</clipPath>
		<path class="st9" d="M163.6,314c0,1.5-1.2,2.6-2.6,2.6c-1.5,0-2.6-1.2-2.6-2.6c0-1.5,1.2-2.6,2.6-2.6
			C162.5,311.4,163.6,312.5,163.6,314z"/>
	</g>
	<g>
		<defs>
			<rect id="SVGID_15_" x="98.7" y="110.9" width="473.2" height="203"/>
		</defs>
		<clipPath id="SVGID_16_">
			<use xlink:href="#SVGID_15_"  style="overflow:visible;"/>
		</clipPath>
		<path class="st10" d="M188.5,308.9c0,1.5-1.2,2.6-2.6,2.6c-1.5,0-2.6-1.2-2.6-2.6c0-1.5,1.2-2.6,2.6-2.6
			C187.4,306.3,188.5,307.5,188.5,308.9z"/>
	</g>
	<g>
		<defs>
			<rect id="SVGID_17_" x="98.7" y="110.9" width="473.2" height="203"/>
		</defs>
		<clipPath id="SVGID_18_">
			<use xlink:href="#SVGID_17_"  style="overflow:visible;"/>
		</clipPath>
		<path class="st11" d="M213.4,314c0,1.5-1.2,2.6-2.6,2.6c-1.5,0-2.6-1.2-2.6-2.6c0-1.5,1.2-2.6,2.6-2.6
			C212.3,311.4,213.4,312.5,213.4,314z"/>
	</g>
	<g>
		<defs>
			<rect id="SVGID_19_" x="98.7" y="110.9" width="473.2" height="203"/>
		</defs>
		<clipPath id="SVGID_20_">
			<use xlink:href="#SVGID_19_"  style="overflow:visible;"/>
		</clipPath>
		<path class="st12" d="M238.4,314c0,1.5-1.2,2.6-2.6,2.6c-1.5,0-2.6-1.2-2.6-2.6c0-1.5,1.2-2.6,2.6-2.6
			C237.2,311.4,238.4,312.5,238.4,314z"/>
	</g>
	<g>
		<defs>
			<rect id="SVGID_21_" x="98.7" y="110.9" width="473.2" height="203"/>
		</defs>
		<clipPath id="SVGID_22_">
			<use xlink:href="#SVGID_21_"  style="overflow:visible;"/>
		</clipPath>
		<path class="st13" d="M263.3,288.6c0,1.5-1.2,2.6-2.6,2.6s-2.6-1.2-2.6-2.6c0-1.5,1.2-2.6,2.6-2.6S263.3,287.2,263.3,288.6z"/>
	</g>
	<g>
		<defs>
			<rect id="SVGID_23_" x="98.7" y="110.9" width="473.2" height="203"/>
		</defs>
		<clipPath id="SVGID_24_">
			<use xlink:href="#SVGID_23_"  style="overflow:visible;"/>
		</clipPath>
		<path class="st14" d="M288.2,297.1c0,1.5-1.2,2.6-2.6,2.6s-2.6-1.2-2.6-2.6c0-1.5,1.2-2.6,2.6-2.6S288.2,295.6,288.2,297.1z"/>
	</g>
	<g>
		<defs>
			<rect id="SVGID_25_" x="98.7" y="110.9" width="473.2" height="203"/>
		</defs>
		<clipPath id="SVGID_26_">
			<use xlink:href="#SVGID_25_"  style="overflow:visible;"/>
		</clipPath>
		<path class="st15" d="M313.1,295.4c0,1.5-1.2,2.6-2.6,2.6c-1.5,0-2.6-1.2-2.6-2.6s1.2-2.6,2.6-2.6
			C311.9,292.7,313.1,293.9,313.1,295.4z"/>
	</g>
	<g>
		<defs>
			<rect id="SVGID_27_" x="98.7" y="110.9" width="473.2" height="203"/>
		</defs>
		<clipPath id="SVGID_28_">
			<use xlink:href="#SVGID_27_"  style="overflow:visible;"/>
		</clipPath>
		<path class="st16" d="M338,303.8c0,1.5-1.2,2.6-2.6,2.6c-1.5,0-2.6-1.2-2.6-2.6c0-1.5,1.2-2.6,2.6-2.6
			C336.8,301.2,338,302.4,338,303.8z"/>
	</g>
	<g>
		<defs>
			<rect id="SVGID_29_" x="98.7" y="110.9" width="473.2" height="203"/>
		</defs>
		<clipPath id="SVGID_30_">
			<use xlink:href="#SVGID_29_"  style="overflow:visible;"/>
		</clipPath>
		<path class="st17" d="M362.9,285.2c0,1.5-1.2,2.6-2.6,2.6c-1.5,0-2.6-1.2-2.6-2.6s1.2-2.6,2.6-2.6
			C361.7,282.6,362.9,283.8,362.9,285.2z"/>
	</g>
	<g>
		<defs>
			<rect id="SVGID_31_" x="98.7" y="110.9" width="473.2" height="203"/>
		</defs>
		<clipPath id="SVGID_32_">
			<use xlink:href="#SVGID_31_"  style="overflow:visible;"/>
		</clipPath>
		<path class="st18" d="M387.8,283.5c0,1.5-1.2,2.6-2.6,2.6c-1.5,0-2.6-1.2-2.6-2.6c0-1.5,1.2-2.6,2.6-2.6
			C386.6,280.9,387.8,282.1,387.8,283.5z"/>
	</g>
	<g>
		<defs>
			<rect id="SVGID_33_" x="98.7" y="110.9" width="473.2" height="203"/>
		</defs>
		<clipPath id="SVGID_34_">
			<use xlink:href="#SVGID_33_"  style="overflow:visible;"/>
		</clipPath>
		<path class="st19" d="M412.7,268.3c0,1.5-1.2,2.6-2.6,2.6c-1.5,0-2.6-1.2-2.6-2.6c0-1.5,1.2-2.6,2.6-2.6
			C411.5,265.7,412.7,266.8,412.7,268.3z"/>
	</g>
	<g>
		<defs>
			<rect id="SVGID_35_" x="98.7" y="110.9" width="473.2" height="203"/>
		</defs>
		<clipPath id="SVGID_36_">
			<use xlink:href="#SVGID_35_"  style="overflow:visible;"/>
		</clipPath>
		<path class="st20" d="M437.6,209.1c0,1.5-1.2,2.6-2.6,2.6c-1.5,0-2.6-1.2-2.6-2.6c0-1.5,1.2-2.6,2.6-2.6
			C436.4,206.4,437.6,207.6,437.6,209.1z"/>
	</g>
	<g>
		<defs>
			<rect id="SVGID_37_" x="98.7" y="110.9" width="473.2" height="203"/>
		</defs>
		<clipPath id="SVGID_38_">
			<use xlink:href="#SVGID_37_"  style="overflow:visible;"/>
		</clipPath>
		<path class="st21" d="M462.5,314c0,1.5-1.2,2.6-2.6,2.6c-1.5,0-2.6-1.2-2.6-2.6c0-1.5,1.2-2.6,2.6-2.6
			C461.3,311.4,462.5,312.5,462.5,314z"/>
	</g>
	<g>
		<defs>
			<rect id="SVGID_39_" x="98.7" y="110.9" width="473.2" height="203"/>
		</defs>
		<clipPath id="SVGID_40_">
			<use xlink:href="#SVGID_39_"  style="overflow:visible;"/>
		</clipPath>
		<path class="st22" d="M487.4,314c0,1.5-1.2,2.6-2.6,2.6c-1.5,0-2.6-1.2-2.6-2.6c0-1.5,1.2-2.6,2.6-2.6
			C486.2,311.4,487.4,312.5,487.4,314z"/>
	</g>
	<g>
		<defs>
			<rect id="SVGID_41_" x="98.7" y="110.9" width="473.2" height="203"/>
		</defs>
		<clipPath id="SVGID_42_">
			<use xlink:href="#SVGID_41_"  style="overflow:visible;"/>
		</clipPath>
		<path class="st23" d="M512.3,314c0,1.5-1.2,2.6-2.6,2.6c-1.5,0-2.6-1.2-2.6-2.6c0-1.5,1.2-2.6,2.6-2.6
			C511.1,311.4,512.3,312.5,512.3,314z"/>
	</g>
	<g>
		<defs>
			<rect id="SVGID_43_" x="98.7" y="110.9" width="473.2" height="203"/>
		</defs>
		<clipPath id="SVGID_44_">
			<use xlink:href="#SVGID_43_"  style="overflow:visible;"/>
		</clipPath>
		<path class="st24" d="M537.2,248c0,1.5-1.2,2.6-2.6,2.6s-2.6-1.2-2.6-2.6c0-1.5,1.2-2.6,2.6-2.6S537.2,246.5,537.2,248z"/>
	</g>
	<g>
		<defs>
			<rect id="SVGID_45_" x="98.7" y="110.9" width="473.2" height="203"/>
		</defs>
		<clipPath id="SVGID_46_">
			<use xlink:href="#SVGID_45_"  style="overflow:visible;"/>
		</clipPath>
		<path class="st25" d="M562.1,307.2c0,1.5-1.2,2.6-2.6,2.6s-2.6-1.2-2.6-2.6c0-1.5,1.2-2.6,2.6-2.6S562.1,305.8,562.1,307.2z"/>
	</g>
	<g>
		<defs>
			<rect id="SVGID_47_" x="98.7" y="110.9" width="473.2" height="203"/>
		</defs>
		<clipPath id="SVGID_48_">
			<use xlink:href="#SVGID_47_"  style="overflow:visible;"/>
		</clipPath>
		<path class="st26" d="M113.8,312.3c0,1.5-1.2,2.6-2.6,2.6s-2.6-1.2-2.6-2.6c0-1.5,1.2-2.6,2.6-2.6S113.8,310.8,113.8,312.3z"/>
	</g>
	<g>
		<defs>
			<rect id="SVGID_49_" x="98.7" y="110.9" width="473.2" height="203"/>
		</defs>
		<clipPath id="SVGID_50_">
			<use xlink:href="#SVGID_49_"  style="overflow:visible;"/>
		</clipPath>
		<path class="st27" d="M138.7,310.6c0,1.5-1.2,2.6-2.6,2.6c-1.5,0-2.6-1.2-2.6-2.6s1.2-2.6,2.6-2.6
			C137.6,308,138.7,309.2,138.7,310.6z"/>
	</g>
	<g>
		<defs>
			<rect id="SVGID_51_" x="98.7" y="110.9" width="473.2" height="203"/>
		</defs>
		<clipPath id="SVGID_52_">
			<use xlink:href="#SVGID_51_"  style="overflow:visible;"/>
		</clipPath>
		<path class="st28" d="M163.6,314c0,1.5-1.2,2.6-2.6,2.6c-1.5,0-2.6-1.2-2.6-2.6c0-1.5,1.2-2.6,2.6-2.6
			C162.5,311.4,163.6,312.5,163.6,314z"/>
	</g>
	<g>
		<defs>
			<rect id="SVGID_53_" x="98.7" y="110.9" width="473.2" height="203"/>
		</defs>
		<clipPath id="SVGID_54_">
			<use xlink:href="#SVGID_53_"  style="overflow:visible;"/>
		</clipPath>
		<path class="st29" d="M188.5,308.9c0,1.5-1.2,2.6-2.6,2.6c-1.5,0-2.6-1.2-2.6-2.6c0-1.5,1.2-2.6,2.6-2.6
			C187.4,306.3,188.5,307.5,188.5,308.9z"/>
	</g>
	<g>
		<defs>
			<rect id="SVGID_55_" x="98.7" y="110.9" width="473.2" height="203"/>
		</defs>
		<clipPath id="SVGID_56_">
			<use xlink:href="#SVGID_55_"  style="overflow:visible;"/>
		</clipPath>
		<path class="st30" d="M213.4,312.3c0,1.5-1.2,2.6-2.6,2.6c-1.5,0-2.6-1.2-2.6-2.6c0-1.5,1.2-2.6,2.6-2.6
			C212.3,309.7,213.4,310.8,213.4,312.3z"/>
	</g>
	<g>
		<defs>
			<rect id="SVGID_57_" x="98.7" y="110.9" width="473.2" height="203"/>
		</defs>
		<clipPath id="SVGID_58_">
			<use xlink:href="#SVGID_57_"  style="overflow:visible;"/>
		</clipPath>
		<path class="st31" d="M238.4,314c0,1.5-1.2,2.6-2.6,2.6c-1.5,0-2.6-1.2-2.6-2.6c0-1.5,1.2-2.6,2.6-2.6
			C237.2,311.4,238.4,312.5,238.4,314z"/>
	</g>
	<g>
		<defs>
			<rect id="SVGID_59_" x="98.7" y="110.9" width="473.2" height="203"/>
		</defs>
		<clipPath id="SVGID_60_">
			<use xlink:href="#SVGID_59_"  style="overflow:visible;"/>
		</clipPath>
		<path class="st32" d="M263.3,285.2c0,1.5-1.2,2.6-2.6,2.6s-2.6-1.2-2.6-2.6s1.2-2.6,2.6-2.6S263.3,283.8,263.3,285.2z"/>
	</g>
	<g>
		<defs>
			<rect id="SVGID_61_" x="98.7" y="110.9" width="473.2" height="203"/>
		</defs>
		<clipPath id="SVGID_62_">
			<use xlink:href="#SVGID_61_"  style="overflow:visible;"/>
		</clipPath>
		<path class="st33" d="M288.2,297.1c0,1.5-1.2,2.6-2.6,2.6s-2.6-1.2-2.6-2.6c0-1.5,1.2-2.6,2.6-2.6S288.2,295.6,288.2,297.1z"/>
	</g>
	<g>
		<defs>
			<rect id="SVGID_63_" x="98.7" y="110.9" width="473.2" height="203"/>
		</defs>
		<clipPath id="SVGID_64_">
			<use xlink:href="#SVGID_63_"  style="overflow:visible;"/>
		</clipPath>
		<path class="st34" d="M313.1,286.9c0,1.5-1.2,2.6-2.6,2.6c-1.5,0-2.6-1.2-2.6-2.6c0-1.5,1.2-2.6,2.6-2.6
			C311.9,284.3,313.1,285.5,313.1,286.9z"/>
	</g>
	<g>
		<defs>
			<rect id="SVGID_65_" x="98.7" y="110.9" width="473.2" height="203"/>
		</defs>
		<clipPath id="SVGID_66_">
			<use xlink:href="#SVGID_65_"  style="overflow:visible;"/>
		</clipPath>
		<path class="st35" d="M338,286.9c0,1.5-1.2,2.6-2.6,2.6c-1.5,0-2.6-1.2-2.6-2.6c0-1.5,1.2-2.6,2.6-2.6
			C336.8,284.3,338,285.5,338,286.9z"/>
	</g>
	<g>
		<defs>
			<rect id="SVGID_67_" x="98.7" y="110.9" width="473.2" height="203"/>
		</defs>
		<clipPath id="SVGID_68_">
			<use xlink:href="#SVGID_67_"  style="overflow:visible;"/>
		</clipPath>
		<path class="st36" d="M362.9,275.1c0,1.5-1.2,2.6-2.6,2.6c-1.5,0-2.6-1.2-2.6-2.6s1.2-2.6,2.6-2.6
			C361.7,272.4,362.9,273.6,362.9,275.1z"/>
	</g>
	<g>
		<defs>
			<rect id="SVGID_69_" x="98.7" y="110.9" width="473.2" height="203"/>
		</defs>
		<clipPath id="SVGID_70_">
			<use xlink:href="#SVGID_69_"  style="overflow:visible;"/>
		</clipPath>
		<path class="st37" d="M387.8,268.3c0,1.5-1.2,2.6-2.6,2.6c-1.5,0-2.6-1.2-2.6-2.6c0-1.5,1.2-2.6,2.6-2.6
			C386.6,265.7,387.8,266.8,387.8,268.3z"/>
	</g>
	<g>
		<defs>
			<rect id="SVGID_71_" x="98.7" y="110.9" width="473.2" height="203"/>
		</defs>
		<clipPath id="SVGID_72_">
			<use xlink:href="#SVGID_71_"  style="overflow:visible;"/>
		</clipPath>
		<path class="st38" d="M412.7,241.2c0,1.5-1.2,2.6-2.6,2.6c-1.5,0-2.6-1.2-2.6-2.6s1.2-2.6,2.6-2.6
			C411.5,238.6,412.7,239.8,412.7,241.2z"/>
	</g>
	<g>
		<defs>
			<rect id="SVGID_73_" x="98.7" y="110.9" width="473.2" height="203"/>
		</defs>
		<clipPath id="SVGID_74_">
			<use xlink:href="#SVGID_73_"  style="overflow:visible;"/>
		</clipPath>
		<path class="st39" d="M437.6,151.6c0,1.5-1.2,2.6-2.6,2.6c-1.5,0-2.6-1.2-2.6-2.6c0-1.5,1.2-2.6,2.6-2.6
			C436.4,148.9,437.6,150.1,437.6,151.6z"/>
	</g>
	<g>
		<defs>
			<rect id="SVGID_75_" x="98.7" y="110.9" width="473.2" height="203"/>
		</defs>
		<clipPath id="SVGID_76_">
			<use xlink:href="#SVGID_75_"  style="overflow:visible;"/>
		</clipPath>
		<path class="st40" d="M462.5,314c0,1.5-1.2,2.6-2.6,2.6c-1.5,0-2.6-1.2-2.6-2.6c0-1.5,1.2-2.6,2.6-2.6
			C461.3,311.4,462.5,312.5,462.5,314z"/>
	</g>
	<g>
		<defs>
			<rect id="SVGID_77_" x="98.7" y="110.9" width="473.2" height="203"/>
		</defs>
		<clipPath id="SVGID_78_">
			<use xlink:href="#SVGID_77_"  style="overflow:visible;"/>
		</clipPath>
		<path class="st41" d="M487.4,314c0,1.5-1.2,2.6-2.6,2.6c-1.5,0-2.6-1.2-2.6-2.6c0-1.5,1.2-2.6,2.6-2.6
			C486.2,311.4,487.4,312.5,487.4,314z"/>
	</g>
	<g>
		<defs>
			<rect id="SVGID_79_" x="98.7" y="110.9" width="473.2" height="203"/>
		</defs>
		<clipPath id="SVGID_80_">
			<use xlink:href="#SVGID_79_"  style="overflow:visible;"/>
		</clipPath>
		<path class="st42" d="M512.3,215.8c0,1.5-1.2,2.6-2.6,2.6c-1.5,0-2.6-1.2-2.6-2.6c0-1.5,1.2-2.6,2.6-2.6
			C511.1,213.2,512.3,214.4,512.3,215.8z"/>
	</g>
	<g>
		<defs>
			<rect id="SVGID_81_" x="98.7" y="110.9" width="473.2" height="203"/>
		</defs>
		<clipPath id="SVGID_82_">
			<use xlink:href="#SVGID_81_"  style="overflow:visible;"/>
		</clipPath>
		<path class="st43" d="M537.2,116c0,1.5-1.2,2.6-2.6,2.6s-2.6-1.2-2.6-2.6s1.2-2.6,2.6-2.6S537.2,114.6,537.2,116z"/>
	</g>
	<g>
		<defs>
			<rect id="SVGID_83_" x="98.7" y="110.9" width="473.2" height="203"/>
		</defs>
		<clipPath id="SVGID_84_">
			<use xlink:href="#SVGID_83_"  style="overflow:visible;"/>
		</clipPath>
		<path class="st44" d="M562.1,307.2c0,1.5-1.2,2.6-2.6,2.6s-2.6-1.2-2.6-2.6c0-1.5,1.2-2.6,2.6-2.6S562.1,305.8,562.1,307.2z"/>
	</g>
	<rect x="67.1" y="105.5" class="st45" width="21.4" height="219"/>
	<text transform="matrix(1 0 0 1 74.0536 112.2466)" class="st46"><tspan x="0" y="0" class="st47 st48">120</tspan><tspan x="0" y="34" class="st47 st48">100</tspan><tspan x="4.8" y="68" class="st47 st48">80</tspan><tspan x="4.8" y="102" class="st47 st48">60</tspan><tspan x="4.8" y="136" class="st47 st48">40</tspan><tspan x="4.8" y="170" class="st47 st48">20</tspan><tspan x="9.6" y="204" class="st47 st48">0</tspan></text>
</g>
<g>
	<path class="st49" d="M212.2,44h4.4v8.5c0,0.8-0.1,1.6-0.4,2.4c-0.3,0.8-0.7,1.4-1.2,2s-1.2,1-1.8,1.2c-0.9,0.3-1.9,0.5-3.1,0.5
		c-0.7,0-1.5-0.1-2.3-0.2c-0.8-0.1-1.5-0.3-2.1-0.6c-0.6-0.3-1.1-0.7-1.5-1.2c-0.5-0.5-0.8-1.1-0.9-1.7c-0.3-0.9-0.4-1.7-0.4-2.4V44
		h4.4v8.7c0,0.8,0.2,1.4,0.6,1.8c0.4,0.4,1,0.7,1.8,0.7c0.8,0,1.4-0.2,1.8-0.6c0.4-0.4,0.7-1.1,0.7-1.8V44z M219.7,47.9h3.7v1.7
		c0.6-0.7,1.1-1.2,1.7-1.5c0.6-0.3,1.3-0.5,2.1-0.5c1.1,0,2,0.3,2.6,1c0.6,0.7,0.9,1.7,0.9,3v6.6h-4v-5.7c0-0.7-0.1-1.1-0.4-1.4
		c-0.2-0.3-0.6-0.4-1-0.4c-0.5,0-0.9,0.2-1.2,0.5c-0.3,0.4-0.5,1-0.5,2v5h-4V47.9z M232.8,44h4v2.7h-4V44z M232.8,47.9h4v10.4h-4
		V47.9z M244.5,44v3.9h2.2v2.9h-2.2v3.7c0,0.4,0,0.7,0.1,0.9c0.1,0.2,0.4,0.3,0.7,0.3c0.3,0,0.7-0.1,1.2-0.2l0.3,2.7
		c-1,0.2-1.9,0.3-2.8,0.3c-1,0-1.7-0.1-2.2-0.4c-0.5-0.3-0.8-0.6-1-1.2c-0.2-0.5-0.3-1.4-0.3-2.5v-3.7H239v-2.9h1.5V46L244.5,44z
		 M260.2,54.1h-8c0.1,0.6,0.2,1.1,0.5,1.4c0.4,0.5,0.9,0.7,1.5,0.7c0.4,0,0.8-0.1,1.1-0.3c0.2-0.1,0.5-0.3,0.7-0.7l3.9,0.4
		c-0.6,1-1.3,1.8-2.2,2.2c-0.8,0.4-2.1,0.7-3.6,0.7c-1.4,0-2.5-0.2-3.2-0.6c-0.8-0.4-1.4-1-2-1.8c-0.5-0.8-0.8-1.8-0.8-3
		c0-1.6,0.5-2.9,1.5-3.9c1-1,2.5-1.5,4.3-1.5c1.5,0,2.7,0.2,3.5,0.7c0.9,0.4,1.5,1.1,2,2c0.4,0.9,0.7,2,0.7,3.3V54.1z M256.1,52.2
		c-0.1-0.8-0.3-1.3-0.6-1.6c-0.3-0.3-0.8-0.5-1.3-0.5c-0.6,0-1.1,0.2-1.5,0.8c-0.2,0.3-0.4,0.8-0.5,1.4H256.1z M272.6,44v14.3h-3.7
		v-1.5c-0.5,0.6-1,1.1-1.4,1.3c-0.6,0.3-1.2,0.5-1.9,0.5c-1.4,0-2.5-0.5-3.2-1.6c-0.7-1.1-1.1-2.4-1.1-3.9c0-1.7,0.4-3,1.2-3.9
		c0.8-0.9,1.9-1.4,3.1-1.4c0.6,0,1.2,0.1,1.7,0.3c0.5,0.2,1,0.5,1.4,0.9v-5H272.6z M268.6,53c0-0.8-0.2-1.4-0.5-1.8
		c-0.3-0.4-0.8-0.6-1.3-0.6c-0.5,0-0.9,0.2-1.2,0.6c-0.3,0.4-0.5,1-0.5,1.9c0,0.8,0.2,1.5,0.5,1.9c0.3,0.4,0.7,0.6,1.2,0.6
		c0.5,0,0.9-0.2,1.3-0.6C268.4,54.6,268.6,53.9,268.6,53z M281.1,53.5l4.2-0.3c0.1,0.7,0.3,1.2,0.5,1.6c0.5,0.6,1.1,0.9,2,0.9
		c0.6,0,1.1-0.1,1.5-0.4c0.3-0.3,0.5-0.7,0.5-1c0-0.4-0.2-0.7-0.5-1c-0.3-0.3-1.1-0.6-2.3-0.8c-1.9-0.4-3.3-1-4.1-1.7
		c-0.8-0.7-1.2-1.6-1.2-2.8c0-0.7,0.2-1.4,0.6-2.1c0.4-0.7,1.1-1.2,1.9-1.5c0.9-0.4,2-0.6,3.5-0.6c1.8,0,3.2,0.3,4.2,1
		c1,0.7,1.5,1.8,1.7,3.2l-4.2,0.2c-0.1-0.6-0.3-1.1-0.7-1.4c-0.4-0.3-0.8-0.4-1.5-0.4c-0.5,0-0.9,0.1-1.2,0.3
		c-0.3,0.2-0.4,0.5-0.4,0.8c0,0.2,0.1,0.4,0.3,0.6c0.2,0.2,0.7,0.4,1.5,0.5c1.9,0.4,3.3,0.8,4.2,1.3c0.8,0.4,1.5,1,1.8,1.6
		c0.4,0.6,0.6,1.3,0.6,2.1c0,0.9-0.3,1.8-0.8,2.5c-0.5,0.8-1.2,1.4-2.1,1.8c-0.9,0.4-2.1,0.6-3.4,0.6c-2.4,0-4.1-0.5-5.1-1.4
		S281.3,55,281.1,53.5z M300.5,44v3.9h2.2v2.9h-2.2v3.7c0,0.4,0,0.7,0.1,0.9c0.1,0.2,0.4,0.3,0.7,0.3c0.3,0,0.7-0.1,1.2-0.2l0.3,2.7
		c-1,0.2-1.9,0.3-2.8,0.3c-1,0-1.7-0.1-2.2-0.4c-0.5-0.3-0.8-0.6-1-1.2c-0.2-0.5-0.3-1.4-0.3-2.5v-3.7H295v-2.9h1.5V46L300.5,44z
		 M308.3,51.2l-3.8-0.4c0.1-0.7,0.3-1.2,0.6-1.6c0.3-0.4,0.7-0.7,1.2-1c0.4-0.2,0.9-0.4,1.5-0.5c0.6-0.1,1.3-0.2,2.1-0.2
		c1.2,0,2.1,0.1,2.9,0.2c0.7,0.1,1.3,0.4,1.8,0.8c0.3,0.3,0.6,0.7,0.8,1.3c0.2,0.5,0.3,1,0.3,1.5v4.6c0,0.5,0,0.9,0.1,1.2
		c0.1,0.3,0.2,0.6,0.4,1h-3.7c-0.1-0.3-0.2-0.5-0.3-0.6c0-0.1-0.1-0.4-0.1-0.7c-0.5,0.5-1,0.9-1.6,1.1c-0.7,0.3-1.5,0.4-2.4,0.4
		c-1.2,0-2.2-0.3-2.8-0.9c-0.6-0.6-1-1.3-1-2.1c0-0.8,0.2-1.4,0.7-1.9c0.5-0.5,1.3-0.9,2.6-1.1c1.5-0.3,2.5-0.5,2.9-0.6
		c0.4-0.1,0.9-0.3,1.4-0.5c0-0.5-0.1-0.8-0.3-1c-0.2-0.2-0.6-0.3-1.1-0.3c-0.7,0-1.1,0.1-1.5,0.3C308.6,50.5,308.4,50.8,308.3,51.2z
		 M311.7,53.3c-0.5,0.2-1.1,0.4-1.7,0.5c-0.8,0.2-1.3,0.4-1.5,0.6c-0.2,0.2-0.3,0.5-0.3,0.7c0,0.3,0.1,0.6,0.3,0.8
		c0.2,0.2,0.5,0.3,1,0.3c0.4,0,0.9-0.1,1.2-0.3c0.4-0.2,0.7-0.5,0.8-0.8c0.2-0.3,0.2-0.7,0.2-1.2V53.3z M322.5,44v3.9h2.2v2.9h-2.2
		v3.7c0,0.4,0,0.7,0.1,0.9c0.1,0.2,0.4,0.3,0.7,0.3c0.3,0,0.7-0.1,1.2-0.2l0.3,2.7c-1,0.2-1.9,0.3-2.8,0.3c-1,0-1.7-0.1-2.2-0.4
		c-0.5-0.3-0.8-0.6-1-1.2c-0.2-0.5-0.3-1.4-0.3-2.5v-3.7H317v-2.9h1.5V46L322.5,44z M338.2,54.1h-8c0.1,0.6,0.2,1.1,0.5,1.4
		c0.4,0.5,0.9,0.7,1.5,0.7c0.4,0,0.8-0.1,1.1-0.3c0.2-0.1,0.5-0.3,0.7-0.7l3.9,0.4c-0.6,1-1.3,1.8-2.2,2.2c-0.8,0.4-2.1,0.7-3.6,0.7
		c-1.4,0-2.5-0.2-3.2-0.6c-0.8-0.4-1.4-1-2-1.8c-0.5-0.8-0.8-1.8-0.8-3c0-1.6,0.5-2.9,1.5-3.9c1-1,2.5-1.5,4.3-1.5
		c1.5,0,2.7,0.2,3.5,0.7c0.9,0.4,1.5,1.1,2,2c0.4,0.9,0.7,2,0.7,3.3V54.1z M334.1,52.2c-0.1-0.8-0.3-1.3-0.6-1.6
		c-0.3-0.3-0.8-0.5-1.3-0.5c-0.6,0-1.1,0.2-1.5,0.8c-0.2,0.3-0.4,0.8-0.5,1.4H334.1z M339,55.4l3.9-0.4c0.2,0.5,0.4,0.8,0.7,1
		c0.3,0.2,0.7,0.3,1.2,0.3c0.5,0,0.9-0.1,1.2-0.3c0.2-0.2,0.3-0.4,0.3-0.6c0-0.3-0.1-0.5-0.4-0.7c-0.2-0.1-0.8-0.2-1.7-0.4
		c-1.4-0.2-2.3-0.5-2.9-0.7c-0.5-0.2-1-0.6-1.4-1c-0.4-0.5-0.5-1-0.5-1.7c0-0.7,0.2-1.3,0.6-1.8c0.4-0.5,0.9-0.9,1.6-1.1
		c0.7-0.3,1.6-0.4,2.8-0.4c1.2,0,2.1,0.1,2.7,0.3c0.6,0.2,1.1,0.5,1.5,0.9c0.4,0.4,0.7,0.9,1,1.6l-3.8,0.4c-0.1-0.3-0.3-0.6-0.5-0.7
		c-0.3-0.2-0.7-0.3-1.1-0.3s-0.8,0.1-1,0.2c-0.2,0.2-0.3,0.3-0.3,0.6c0,0.2,0.1,0.4,0.4,0.6c0.3,0.1,0.8,0.2,1.7,0.3
		c1.3,0.2,2.3,0.4,3,0.6c0.6,0.3,1.1,0.6,1.5,1.1c0.3,0.5,0.5,1,0.5,1.6s-0.2,1.2-0.5,1.8c-0.4,0.6-0.9,1-1.7,1.4
		c-0.8,0.3-1.8,0.5-3.2,0.5c-1.9,0-3.2-0.3-4-0.8C339.7,57.2,339.2,56.4,339,55.4z M357.5,47.9h4.1l2,6.6l2.1-6.6h4l-4.4,10.4h-3.5
		L357.5,47.9z M370.7,54.3h4.2v4h-4.2V54.3z M385,58.3V44h7.4c1.4,0,2.4,0.1,3.1,0.4c0.7,0.2,1.3,0.7,1.7,1.3
		c0.4,0.6,0.7,1.4,0.7,2.3c0,0.8-0.2,1.5-0.5,2.1c-0.3,0.6-0.8,1-1.4,1.4c-0.4,0.2-0.9,0.4-1.6,0.6c0.5,0.2,0.9,0.3,1.2,0.5
		c0.2,0.1,0.4,0.4,0.7,0.8c0.3,0.4,0.5,0.7,0.6,0.9l2.1,4.2h-5l-2.4-4.4c-0.3-0.6-0.6-0.9-0.8-1.1c-0.3-0.2-0.7-0.3-1.1-0.3h-0.4
		v5.8H385z M389.4,49.7h1.9c0.2,0,0.6-0.1,1.2-0.2c0.3-0.1,0.5-0.2,0.7-0.4c0.2-0.2,0.3-0.5,0.3-0.8c0-0.5-0.1-0.8-0.4-1.1
		c-0.3-0.3-0.8-0.4-1.7-0.4h-1.9V49.7z M411.6,58.3h-3.7v-1.7c-0.6,0.7-1.1,1.2-1.7,1.5c-0.6,0.3-1.3,0.4-2.1,0.4
		c-1.1,0-2-0.3-2.6-1s-0.9-1.7-0.9-3v-6.6h4v5.7c0,0.7,0.1,1.1,0.4,1.4c0.2,0.3,0.6,0.4,1,0.4c0.5,0,0.9-0.2,1.2-0.5
		c0.3-0.4,0.5-1,0.5-2v-5h4V58.3z M413,55.4l3.9-0.4c0.2,0.5,0.4,0.8,0.7,1c0.3,0.2,0.7,0.3,1.2,0.3c0.5,0,0.9-0.1,1.2-0.3
		c0.2-0.2,0.3-0.4,0.3-0.6c0-0.3-0.1-0.5-0.4-0.7c-0.2-0.1-0.8-0.2-1.7-0.4c-1.4-0.2-2.3-0.5-2.9-0.7c-0.5-0.2-1-0.6-1.4-1
		c-0.4-0.5-0.5-1-0.5-1.7c0-0.7,0.2-1.3,0.6-1.8c0.4-0.5,0.9-0.9,1.6-1.1c0.7-0.3,1.6-0.4,2.8-0.4c1.2,0,2.1,0.1,2.7,0.3
		c0.6,0.2,1.1,0.5,1.5,0.9c0.4,0.4,0.7,0.9,1,1.6l-3.8,0.4c-0.1-0.3-0.3-0.6-0.5-0.7c-0.3-0.2-0.7-0.3-1.1-0.3s-0.8,0.1-1,0.2
		c-0.2,0.2-0.3,0.3-0.3,0.6c0,0.2,0.1,0.4,0.4,0.6c0.3,0.1,0.8,0.2,1.7,0.3c1.3,0.2,2.3,0.4,3,0.6c0.6,0.3,1.1,0.6,1.5,1.1
		c0.3,0.5,0.5,1,0.5,1.6s-0.2,1.2-0.5,1.8c-0.4,0.6-0.9,1-1.7,1.4c-0.8,0.3-1.8,0.5-3.2,0.5c-1.9,0-3.2-0.3-4-0.8
		C413.7,57.2,413.2,56.4,413,55.4z M425,55.4l3.9-0.4c0.2,0.5,0.4,0.8,0.7,1c0.3,0.2,0.7,0.3,1.2,0.3c0.5,0,0.9-0.1,1.2-0.3
		c0.2-0.2,0.3-0.4,0.3-0.6c0-0.3-0.1-0.5-0.4-0.7c-0.2-0.1-0.8-0.2-1.7-0.4c-1.4-0.2-2.3-0.5-2.9-0.7c-0.5-0.2-1-0.6-1.4-1
		c-0.4-0.5-0.5-1-0.5-1.7c0-0.7,0.2-1.3,0.6-1.8c0.4-0.5,0.9-0.9,1.6-1.1c0.7-0.3,1.6-0.4,2.8-0.4c1.2,0,2.1,0.1,2.7,0.3
		c0.6,0.2,1.1,0.5,1.5,0.9c0.4,0.4,0.7,0.9,1,1.6l-3.8,0.4c-0.1-0.3-0.3-0.6-0.5-0.7c-0.3-0.2-0.7-0.3-1.1-0.3s-0.8,0.1-1,0.2
		c-0.2,0.2-0.3,0.3-0.3,0.6c0,0.2,0.1,0.4,0.4,0.6c0.3,0.1,0.8,0.2,1.7,0.3c1.3,0.2,2.3,0.4,3,0.6c0.6,0.3,1.1,0.6,1.5,1.1
		c0.3,0.5,0.5,1,0.5,1.6s-0.2,1.2-0.5,1.8c-0.4,0.6-0.9,1-1.7,1.4c-0.8,0.3-1.8,0.5-3.2,0.5c-1.9,0-3.2-0.3-4-0.8
		C425.7,57.2,425.2,56.4,425,55.4z M437.8,44h4v2.7h-4V44z M437.8,47.9h4v10.4h-4V47.9z M448.3,51.2l-3.8-0.4
		c0.1-0.7,0.3-1.2,0.6-1.6c0.3-0.4,0.7-0.7,1.2-1c0.4-0.2,0.9-0.4,1.5-0.5c0.6-0.1,1.3-0.2,2.1-0.2c1.2,0,2.1,0.1,2.9,0.2
		c0.7,0.1,1.3,0.4,1.8,0.8c0.3,0.3,0.6,0.7,0.8,1.3c0.2,0.5,0.3,1,0.3,1.5v4.6c0,0.5,0,0.9,0.1,1.2c0.1,0.3,0.2,0.6,0.4,1h-3.7
		c-0.1-0.3-0.2-0.5-0.3-0.6c0-0.1-0.1-0.4-0.1-0.7c-0.5,0.5-1,0.9-1.6,1.1c-0.7,0.3-1.5,0.4-2.4,0.4c-1.2,0-2.2-0.3-2.8-0.9
		c-0.6-0.6-1-1.3-1-2.1c0-0.8,0.2-1.4,0.7-1.9c0.5-0.5,1.3-0.9,2.6-1.1c1.5-0.3,2.5-0.5,2.9-0.6c0.4-0.1,0.9-0.3,1.4-0.5
		c0-0.5-0.1-0.8-0.3-1c-0.2-0.2-0.6-0.3-1.1-0.3c-0.7,0-1.1,0.1-1.5,0.3C448.6,50.5,448.4,50.8,448.3,51.2z M451.7,53.3
		c-0.5,0.2-1.1,0.4-1.7,0.5c-0.8,0.2-1.3,0.4-1.5,0.6c-0.2,0.2-0.3,0.5-0.3,0.7c0,0.3,0.1,0.6,0.3,0.8c0.2,0.2,0.5,0.3,1,0.3
		c0.4,0,0.9-0.1,1.2-0.3c0.4-0.2,0.7-0.5,0.8-0.8c0.2-0.3,0.2-0.7,0.2-1.2V53.3z"/>
	<text transform="matrix(1 0 0 1 284.3209 76.6074)" class="st49 st50 st51">from 1945 - 1963</text>
</g>
<g>
	<path class="st49" d="M272.9,339.9c0-0.4,0.3-0.8,0.8-0.8h7.6c0.4,0,0.8,0.3,0.8,0.8v7.6c0,0.4-0.3,0.8-0.8,0.8h-7.6
		c-0.4,0-0.8-0.3-0.8-0.8V339.9z"/>
	<path class="st52" d="M326.8,339.9c0-0.4,0.3-0.8,0.8-0.8h7.6c0.4,0,0.8,0.3,0.8,0.8v7.6c0,0.4-0.3,0.8-0.8,0.8h-7.6
		c-0.4,0-0.8-0.3-0.8-0.8V339.9z"/>
	<text transform="matrix(1 0 0 1 285.1465 346.1244)" class="st53 st54">Russia</text>
	<text transform="matrix(1 0 0 1 340.2422 346.1244)" class="st53 st54">United States</text>
</g>
</svg>
